<svg width="131" height="49" viewBox="0 0 131 49" fill="none" xmlns="http://www.w3.org/2000/svg">
<g clip-path="url(#clip0_5_175)">
<path d="M-83.2581 33.4878C-84.5943 33.4878 -85.7899 33.2593 -86.8448 32.8021C-87.8821 32.345 -88.7084 31.6769 -89.3238 30.7978C-89.9391 29.9187 -90.2556 28.855 -90.2732 27.6067H-86.3701C-86.3525 28.1342 -86.2206 28.6089 -85.9745 29.0309C-85.7107 29.4528 -85.3503 29.7869 -84.8932 30.033C-84.4361 30.2792 -83.8998 30.4022 -83.2845 30.4022C-82.7394 30.4022 -82.2735 30.3143 -81.8867 30.1385C-81.4823 29.9627 -81.1747 29.7165 -80.9637 29.4001C-80.7351 29.0836 -80.6208 28.6968 -80.6208 28.2397C-80.6208 27.7474 -80.7527 27.3254 -81.0164 26.9738C-81.2626 26.6222 -81.6054 26.3233 -82.0449 26.0771C-82.4845 25.831 -82.9944 25.6112 -83.5746 25.4178C-84.1372 25.2068 -84.7437 24.9959 -85.3943 24.7849C-86.8535 24.3102 -87.97 23.6772 -88.7436 22.886C-89.4996 22.0949 -89.8776 21.04 -89.8776 19.7213C-89.8776 18.5961 -89.6139 17.6379 -89.0864 16.8467C-88.5414 16.0555 -87.7942 15.449 -86.8448 15.027C-85.8778 14.6051 -84.7877 14.3941 -83.5746 14.3941C-82.3263 14.3941 -81.2274 14.6138 -80.278 15.0534C-79.3286 15.4754 -78.5813 16.0907 -78.0363 16.8995C-77.4737 17.7082 -77.1748 18.6664 -77.1396 19.7741H-81.0955C-81.1131 19.3697 -81.2274 19.0005 -81.4384 18.6664C-81.6494 18.3148 -81.9395 18.0335 -82.3087 17.8225C-82.6779 17.6115 -83.1174 17.506 -83.6273 17.506C-84.0668 17.4885 -84.4712 17.5588 -84.8404 17.717C-85.1921 17.8577 -85.4734 18.0774 -85.6844 18.3763C-85.8953 18.6576 -86.0008 19.0181 -86.0008 19.4576C-86.0008 19.8972 -85.8953 20.2664 -85.6844 20.5653C-85.4734 20.8466 -85.1833 21.0927 -84.8141 21.3037C-84.4273 21.5147 -83.9789 21.7169 -83.4691 21.9103C-82.9592 22.0861 -82.4054 22.2707 -81.8076 22.4641C-80.8758 22.7806 -80.023 23.1586 -79.2495 23.5981C-78.4759 24.0201 -77.8605 24.5739 -77.4034 25.2596C-76.9287 25.9453 -76.6913 26.8507 -76.6913 27.976C-76.6913 28.9605 -76.9462 29.8748 -77.4561 30.7187C-77.966 31.545 -78.7044 32.2132 -79.6714 32.723C-80.6384 33.2329 -81.834 33.4878 -83.2581 33.4878ZM-67.2646 33.4878C-68.6008 33.4878 -69.7875 33.1889 -70.8249 32.5912C-71.8622 31.9934 -72.6797 31.1758 -73.2775 30.1385C-73.8577 29.1012 -74.1478 27.9144 -74.1478 26.5782C-74.1478 25.2068 -73.8577 24.0025 -73.2775 22.9652C-72.6797 21.9103 -71.8622 21.0839 -70.8249 20.4861C-69.7875 19.8708 -68.592 19.5631 -67.2382 19.5631C-65.5328 19.5631 -64.0998 20.0202 -62.9395 20.9345C-61.7615 21.8311 -61.0143 23.0707 -60.6978 24.653H-64.6273C-64.768 24.0552 -65.0844 23.5893 -65.5767 23.2553C-66.0514 22.9036 -66.6228 22.7278 -67.2909 22.7278C-67.8887 22.7278 -68.425 22.886 -68.8997 23.2025C-69.3568 23.5014 -69.7172 23.9322 -69.9809 24.4948C-70.2447 25.0574 -70.3765 25.7343 -70.3765 26.5255C-70.3765 27.1232 -70.3062 27.6595 -70.1655 28.1342C-70.0073 28.5913 -69.7963 28.9869 -69.5326 29.321C-69.2513 29.655 -68.9172 29.9099 -68.5304 30.0858C-68.1436 30.2616 -67.7305 30.3495 -67.2909 30.3495C-66.8338 30.3495 -66.4294 30.2792 -66.0778 30.1385C-65.7262 29.9803 -65.4185 29.7605 -65.1548 29.4792C-64.891 29.1803 -64.7152 28.8287 -64.6273 28.4243H-60.6978C-61.0143 29.9715 -61.7615 31.2022 -62.9395 32.1165C-64.1174 33.0307 -65.5591 33.4878 -67.2646 33.4878ZM-52.6712 33.4878C-53.7437 33.4878 -54.6668 33.2681 -55.4404 32.8285C-56.1964 32.3714 -56.7766 31.7033 -57.181 30.8242C-57.5853 29.9451 -57.7875 28.8638 -57.7875 27.5804V19.8796H-54.0954V27.2112C-54.0954 28.2485 -53.8844 29.0397 -53.4624 29.5847C-53.0229 30.1121 -52.346 30.3759 -51.4317 30.3759C-50.8515 30.3759 -50.3329 30.244 -49.8758 29.9803C-49.4186 29.7165 -49.067 29.3385 -48.8209 28.8463C-48.5571 28.3364 -48.4253 27.7122 -48.4253 26.9738V19.8796H-44.7331V33.1714H-47.9769L-48.267 31.0352C-48.6538 31.7736 -49.2252 32.3714 -49.9812 32.8285C-50.7197 33.2681 -51.6163 33.4878 -52.6712 33.4878ZM-33.3113 33.4878C-33.997 33.4878 -34.6036 33.3999 -35.131 33.2241C-35.6585 33.0659 -36.1244 32.8373 -36.5288 32.5384C-36.9331 32.2395 -37.276 31.8967 -37.5573 31.5099L-37.9792 33.1714H-41.2494V14.1831H-37.5573V21.6993C-37.1529 21.0839 -36.6079 20.5741 -35.9222 20.1697C-35.2189 19.7653 -34.3574 19.5631 -33.3377 19.5631C-32.1245 19.5631 -31.0433 19.8708 -30.0938 20.4861C-29.1268 21.0839 -28.3708 21.9103 -27.8258 22.9652C-27.2632 24.0025 -26.9819 25.198 -26.9819 26.5518C-26.9819 27.8705 -27.2632 29.0572 -27.8258 30.1121C-28.3708 31.167 -29.1181 31.9934 -30.0675 32.5912C-31.0169 33.1889 -32.0982 33.4878 -33.3113 33.4878ZM-34.208 30.2704C-33.5399 30.2704 -32.9421 30.1121 -32.4146 29.7957C-31.8872 29.4792 -31.474 29.0397 -31.1751 28.477C-30.8762 27.9144 -30.7268 27.2727 -30.7268 26.5518C-30.7268 25.8134 -30.8762 25.1629 -31.1751 24.6003C-31.474 24.0377 -31.8872 23.5981 -32.4146 23.2816C-32.9421 22.9476 -33.5399 22.7806 -34.208 22.7806C-34.8937 22.7806 -35.5002 22.9476 -36.0277 23.2816C-36.5375 23.5981 -36.9419 24.0377 -37.2408 24.6003C-37.5397 25.1453 -37.6891 25.787 -37.6891 26.5255C-37.6891 27.2639 -37.5397 27.9144 -37.2408 28.477C-36.9419 29.0397 -36.5375 29.4792 -36.0277 29.7957C-35.5002 30.1121 -34.8937 30.2704 -34.208 30.2704ZM-19.4076 33.4878C-20.4977 33.4878 -21.4119 33.312 -22.1503 32.9604C-22.8712 32.5912 -23.4074 32.1077 -23.7591 31.5099C-24.0931 30.8945 -24.2601 30.2176 -24.2601 29.4792C-24.2601 28.688 -24.058 27.9847 -23.6536 27.3694C-23.2492 26.754 -22.625 26.2705 -21.7811 25.9189C-20.9372 25.5673 -19.8823 25.3914 -18.6164 25.3914H-15.3462C-15.3462 24.7585 -15.4341 24.2398 -15.6099 23.8355C-15.7682 23.4135 -16.0319 23.097 -16.4011 22.886C-16.7528 22.6751 -17.2275 22.5696 -17.8252 22.5696C-18.4758 22.5696 -19.0296 22.7102 -19.4867 22.9915C-19.9263 23.2728 -20.1988 23.6948 -20.3043 24.2574H-23.8909C-23.7854 23.308 -23.469 22.4905 -22.9415 21.8048C-22.4141 21.1015 -21.7108 20.5565 -20.8317 20.1697C-19.935 19.7653 -18.9241 19.5631 -17.7989 19.5631C-16.5506 19.5631 -15.4693 19.7741 -14.555 20.196C-13.6232 20.618 -12.9111 21.2246 -12.4189 22.0158C-11.909 22.8069 -11.6541 23.7827 -11.6541 24.9431V33.1714H-14.766L-15.188 31.167C-15.3638 31.5187 -15.5924 31.8351 -15.8737 32.1165C-16.1374 32.3978 -16.4451 32.6439 -16.7967 32.8549C-17.1483 33.0483 -17.5439 33.1977 -17.9835 33.3032C-18.4054 33.4263 -18.8801 33.4878 -19.4076 33.4878ZM-18.5109 30.6396C-18.0714 30.6396 -17.6758 30.5693 -17.3242 30.4286C-16.9725 30.2704 -16.6736 30.0506 -16.4275 29.7693C-16.1813 29.488 -15.9792 29.1715 -15.8209 28.8199C-15.6627 28.4507 -15.5572 28.0551 -15.5045 27.6331V27.6067H-18.1681C-18.678 27.6067 -19.0999 27.6771 -19.434 27.8177C-19.7504 27.9408 -19.9878 28.1254 -20.146 28.3715C-20.3043 28.6001 -20.3834 28.8638 -20.3834 29.1627C-20.3834 29.4792 -20.3043 29.7517 -20.146 29.9803C-19.9878 30.2088 -19.768 30.3759 -19.4867 30.4814C-19.2054 30.5868 -18.8801 30.6396 -18.5109 30.6396ZM-2.15292 33.1714V14.7105H4.12376C6.25115 14.7105 8.01811 15.0973 9.42465 15.8709C10.8312 16.627 11.8685 17.6994 12.5366 19.0884C13.2223 20.4598 13.5651 22.0773 13.5651 23.941C13.5651 25.787 13.2223 27.4046 12.5366 28.7935C11.8685 30.1825 10.8312 31.2637 9.42465 32.0373C8.03569 32.7933 6.25994 33.1714 4.09739 33.1714H-2.15292ZM1.53925 30.0066H3.91278C5.38964 30.0066 6.55004 29.7693 7.39396 29.2946C8.25546 28.8023 8.87083 28.1078 9.24004 27.2112C9.60926 26.2969 9.79387 25.2068 9.79387 23.941C9.79387 22.6751 9.60926 21.5938 9.24004 20.6971C8.87083 19.7829 8.25546 19.0796 7.39396 18.5873C6.55004 18.095 5.38964 17.8489 3.91278 17.8489H1.53925V30.0066ZM16.5712 33.1714V19.8796H20.2634V33.1714H16.5712ZM18.4173 18.1654C17.7492 18.1654 17.2041 17.972 16.7822 17.5852C16.3602 17.1808 16.1492 16.6885 16.1492 16.1083C16.1492 15.5105 16.3602 15.0182 16.7822 14.6314C17.2041 14.2446 17.7492 14.0512 18.4173 14.0512C19.0854 14.0512 19.6304 14.2446 20.0524 14.6314C20.4743 15.0182 20.6853 15.5105 20.6853 16.1083C20.6853 16.6885 20.4743 17.1808 20.0524 17.5852C19.6304 17.972 19.0854 18.1654 18.4173 18.1654ZM27.3139 33.1714L22.4877 19.8796H26.3645L29.582 29.6902L32.8258 19.8796H36.6498L31.8236 33.1714H27.3139ZM38.9003 33.1714V19.8796H42.5925V33.1714H38.9003ZM40.7464 18.1654C40.0783 18.1654 39.5333 17.972 39.1113 17.5852C38.6894 17.1808 38.4784 16.6885 38.4784 16.1083C38.4784 15.5105 38.6894 15.0182 39.1113 14.6314C39.5333 14.2446 40.0783 14.0512 40.7464 14.0512C41.4145 14.0512 41.9596 14.2446 42.3815 14.6314C42.8035 15.0182 43.0145 15.5105 43.0145 16.1083C43.0145 16.6885 42.8035 17.1808 42.3815 17.5852C41.9596 17.972 41.4145 18.1654 40.7464 18.1654ZM46.1355 33.1714V19.8796H49.3793L49.643 22.0421C50.0474 21.3037 50.6188 20.7059 51.3573 20.2488C52.1133 19.7917 53.0187 19.5631 54.0736 19.5631C55.1637 19.5631 56.0867 19.8005 56.8428 20.2752C57.5988 20.7323 58.1702 21.4004 58.557 22.2795C58.9614 23.1586 59.1635 24.2398 59.1635 25.5233V33.1714H55.4978V25.8662C55.4978 24.8464 55.278 24.064 54.8384 23.519C54.4165 22.9564 53.7396 22.6751 52.8078 22.6751C52.2451 22.6751 51.7353 22.8157 51.2781 23.097C50.821 23.3608 50.4606 23.7476 50.1969 24.2574C49.9507 24.7497 49.8277 25.3563 49.8277 26.0771V33.1714H46.1355ZM68.2646 39.2898C66.9987 39.2898 65.891 39.1316 64.9416 38.8151C63.9922 38.5162 63.2538 38.0503 62.7263 37.4173C62.2165 36.802 61.9615 36.0372 61.9615 35.1229C61.9615 34.49 62.1198 33.8922 62.4362 33.3296C62.7703 32.767 63.2538 32.2659 63.8867 31.8264C64.5197 31.3868 65.2933 31.0088 66.2075 30.6923L67.5525 32.5384C66.7437 32.7846 66.1548 33.101 65.7855 33.4878C65.4339 33.8746 65.2581 34.2966 65.2581 34.7537C65.2581 35.1405 65.39 35.4658 65.6537 35.7295C65.9174 35.9932 66.269 36.1866 66.7086 36.3097C67.1657 36.4503 67.6756 36.5207 68.2382 36.5207C68.7832 36.5207 69.2579 36.4503 69.6623 36.3097C70.0667 36.1866 70.3832 35.9932 70.6117 35.7295C70.8403 35.4658 70.9546 35.1581 70.9546 34.8065C70.9546 34.3317 70.7963 33.9537 70.4799 33.6724C70.1634 33.3911 69.5129 33.2153 68.5283 33.145C67.6492 33.0747 66.858 32.978 66.1548 32.8549C65.4691 32.7142 64.8625 32.556 64.335 32.3802C63.8076 32.1868 63.3505 31.9758 62.9637 31.7472C62.5945 31.5187 62.3044 31.2901 62.0934 31.0615V30.455L64.9416 27.3694L67.5525 28.1869L64.1504 31.5626L65.2317 29.7165C65.4251 29.822 65.6097 29.9275 65.7855 30.033C65.9789 30.1209 66.2163 30.2088 66.4976 30.2967C66.7789 30.3671 67.1393 30.4374 67.5789 30.5077C68.036 30.5605 68.6074 30.622 69.2931 30.6923C70.4535 30.7978 71.4029 31.0176 72.1413 31.3516C72.8798 31.6681 73.4248 32.1077 73.7764 32.6703C74.1456 33.2329 74.3303 33.9186 74.3303 34.7273C74.3303 35.5185 74.1105 36.2569 73.6709 36.9426C73.249 37.6459 72.5897 38.2085 71.693 38.6305C70.7963 39.07 69.6535 39.2898 68.2646 39.2898ZM68.2909 29.2682C67.1833 29.2682 66.2251 29.0572 65.4163 28.6353C64.6076 28.1957 63.9834 27.6155 63.5439 26.8947C63.1219 26.1562 62.9109 25.3299 62.9109 24.4157C62.9109 23.519 63.1219 22.7102 63.5439 21.9894C63.9834 21.2509 64.6076 20.662 65.4163 20.2224C66.2251 19.7829 67.1833 19.5631 68.2909 19.5631C69.4162 19.5631 70.3744 19.7829 71.1655 20.2224C71.9743 20.662 72.5897 21.2509 73.0116 21.9894C73.4336 22.7102 73.6446 23.519 73.6446 24.4157C73.6446 25.3299 73.4336 26.1562 73.0116 26.8947C72.5897 27.6155 71.9743 28.1957 71.1655 28.6353C70.3744 29.0572 69.4162 29.2682 68.2909 29.2682ZM68.2909 26.4727C68.9415 26.4727 69.4689 26.3057 69.8733 25.9716C70.2953 25.62 70.5062 25.1101 70.5062 24.442C70.5062 23.7739 70.2953 23.2728 69.8733 22.9388C69.4689 22.5872 68.9415 22.4113 68.2909 22.4113C67.6404 22.4113 67.1042 22.5872 66.6822 22.9388C66.2602 23.2728 66.0493 23.7739 66.0493 24.442C66.0493 25.1101 66.2602 25.62 66.6822 25.9716C67.1042 26.3057 67.6404 26.4727 68.2909 26.4727ZM70.4799 22.4641L69.8997 19.8796H75.3852V22.0421L70.4799 22.4641Z" fill="#E1F857"/>
<path d="M124.509 31.5567C124.418 31.5082 124.315 31.593 124.339 31.696C124.436 32.0959 124.224 32.726 123.582 32.8592C122.928 32.9925 96.2644 39.8023 96.2644 39.8023L96.6219 42.68C96.6219 42.68 123.734 35.943 124.485 35.6704C125.921 35.1494 125.581 32.1141 124.515 31.5567H124.509Z" fill="#E1F857"/>
<path d="M116.682 30.0977C116.555 30.0069 116.391 30.1098 116.403 30.2613C116.446 30.6612 116.215 31.2004 115.628 31.3215C115.452 31.3579 113.447 31.8608 110.593 32.5878H110.587C110.29 31.9395 109.86 31.2549 109.496 30.746C109.612 30.6551 109.727 30.5521 109.842 30.4491C109.981 30.3219 110.12 30.1886 110.248 30.0432C112.053 28.0984 112.756 25.3358 112.283 22.2399C112.38 22.1429 112.471 22.046 112.562 21.9491C112.665 21.8521 112.901 21.634 113.186 21.3614C113.241 21.3917 113.289 21.428 113.35 21.4583C113.543 21.5613 113.737 21.628 113.889 21.6764C114.319 21.8097 114.61 21.8703 114.882 21.834H114.901L114.919 21.8279C115.331 21.7491 115.525 21.4705 115.616 21.3372V21.325L115.634 21.3069C115.67 21.2523 115.688 21.216 115.779 21.1615C116.124 20.9312 116.349 20.6344 116.452 20.2648C116.464 20.2224 116.476 20.18 116.482 20.1376C116.512 20.1255 116.542 20.1073 116.567 20.0952C116.785 19.9922 116.936 19.9195 117.063 19.7923L117.106 19.7498V19.7377C117.106 19.7377 117.118 19.7317 117.124 19.7256C117.312 19.556 117.56 19.3015 117.663 18.938C117.7 18.8229 117.712 18.7017 117.712 18.5806C117.712 18.3564 117.633 17.9929 117.251 17.6415C117.142 17.5385 116.742 17.2598 116.47 17.1205C116.427 17.0962 116.179 16.9811 115.979 16.8963C116.064 16.6479 116.397 15.5028 116.349 14.8546C116.33 14.6183 116.124 14.4426 115.894 14.4608C115.658 14.479 115.482 14.6789 115.5 14.9152C115.525 15.2666 115.361 15.9875 115.234 16.4116C115.076 16.351 114.931 16.345 114.804 16.3389C114.555 16.242 114.264 16.1875 113.955 16.1814C113.743 16.1753 113.531 16.1996 113.319 16.2541C113.083 16.3086 112.901 16.4056 112.707 16.5388C112.683 16.551 112.659 16.5691 112.617 16.6055C111.793 16.7388 110.575 16.5631 110.296 16.5146C110.187 16.2965 110.078 16.0845 109.975 15.8724C109.224 14.382 108.442 12.8371 108.091 11.2074C108.024 10.9166 107.976 10.6136 107.921 10.3107C107.727 9.18384 107.521 8.0085 106.734 7.10578C105.837 6.0819 104.498 5.76686 103.529 5.6881C102.699 5.6154 101.875 5.70022 101.142 5.93044C99.8998 6.31818 98.9728 7.16031 98.5306 8.30536C98.2398 9.05056 98.0883 9.83816 97.949 10.5955C97.8581 11.068 97.7612 11.5648 97.64 12.0253C97.331 13.1643 96.8281 14.2245 96.3313 15.206C96.2344 15.3877 96.1314 15.5695 96.0224 15.7452C95.8406 16.0481 95.6528 16.3631 95.5195 16.7145C95.3317 17.2113 95.0833 17.8051 95.2893 19.1076C95.471 20.0104 95.8648 20.9918 96.6767 21.5007C96.8463 21.6159 97.0402 21.6946 97.2462 21.7249C97.3916 21.7491 97.8702 21.8158 97.8399 21.5613C97.8338 21.5007 97.8096 21.4523 97.7854 21.3977C97.7066 21.2342 97.646 21.0524 97.6339 20.8646C97.6279 20.6283 97.7006 20.386 97.8763 20.2224C98.0338 20.0709 98.3004 19.8104 98.5488 19.8771C98.5851 19.8831 98.6154 19.9013 98.6457 19.9195L98.6033 20.1133C98.5488 20.3436 98.6881 20.5738 98.9183 20.6283C98.9547 20.6283 98.985 20.6404 99.0152 20.6404C99.2091 20.6404 99.3848 20.5072 99.4333 20.3072L99.4818 20.0891C99.5242 19.9195 99.5545 19.7559 99.5787 19.6044C99.6817 19.5802 99.7544 19.5681 99.7786 19.5681C99.9422 19.562 100.063 19.5923 100.142 19.6711C100.166 19.6953 100.185 19.7195 100.203 19.7498C100.288 19.9013 100.288 20.1194 100.275 20.2527C100.281 20.2951 100.275 20.3254 100.281 20.3557C100.281 20.4647 99.9846 21.1251 100.063 21.2645C100.142 21.3432 100.233 21.428 100.294 21.5432C100.372 21.6764 100.409 21.84 100.366 22.0702C100.318 22.3368 100.348 22.5065 100.378 22.6276C100.397 22.7427 100.409 22.7791 100.366 22.8336C100.306 22.9184 100.142 23.0275 99.8513 23.185C99.712 23.2577 99.5787 23.3183 99.4454 23.3607C99.2576 23.4213 99.088 23.4576 98.9304 23.4637C98.4276 23.494 98.0822 23.2941 97.955 23.1365C97.9247 23.1002 97.8702 23.082 97.8217 23.0941C97.7066 23.1305 97.1856 23.2516 96.5797 23.1911C95.8043 23.1062 95.1197 22.6761 94.6532 22.0581C94.5805 21.9612 94.5138 21.8582 94.4532 21.7491C94.2533 21.3977 94.1261 21.01 94.0837 20.6101C94.0715 20.5132 94.0655 19.665 94.0473 19.4045C93.7686 19.4711 93.4778 19.5136 93.1809 19.5439L93.1991 19.5802C93.2052 19.7014 93.2112 19.865 93.2112 20.0285C93.2233 20.4769 93.2234 20.6162 93.2355 20.7131C93.2961 21.2221 93.4596 21.7249 93.7141 22.1732C93.7868 22.3065 93.8777 22.4459 93.9746 22.567C94.5865 23.391 95.5013 23.9302 96.4828 24.0392C96.7251 24.0635 96.9554 24.0695 97.1614 24.0574C95.7921 26.8504 93.6232 29.6797 90.703 32.4787C90.085 31.8183 89.4429 31.4609 89.1823 31.6729C88.9218 31.891 89.1642 32.6302 89.7276 33.3875C89.7215 33.3875 89.7155 33.3996 89.7094 33.4057C89.4429 33.648 89.1702 33.8903 88.8915 34.1327L89.4489 34.7809C89.7337 34.5325 90.0123 34.2841 90.285 34.0418C90.285 34.0418 90.289 34.0418 90.2971 34.0418C90.8605 34.5931 91.4119 34.8718 91.6481 34.684C91.8844 34.4841 91.7027 33.8479 91.2362 33.1573C91.2483 33.1451 91.2665 33.133 91.2786 33.1209C94.3623 30.1583 96.6403 27.1533 98.0459 24.1847C98.3307 24.2937 98.6578 24.3422 98.985 24.324C99.191 24.324 99.4454 24.2634 99.7059 24.1786C99.918 24.1119 100.1 24.0211 100.245 23.9484C100.257 23.9484 100.275 23.9302 100.288 23.9241C100.512 25.5175 101.13 27.1412 102.087 28.6376C102.511 29.292 102.947 29.8493 103.383 30.3037C102.287 31.0731 101.221 31.3034 100.136 31.0004C99.1182 30.7096 98.1913 30.0008 97.7733 29.1829L97.016 29.5706C97.4401 30.4067 98.2822 31.1519 99.2576 31.576H99.2273C99.512 32.6241 99.6938 33.8903 99.7726 35.3444C93.7444 36.8832 88.2978 38.2706 88.2978 38.2706L88.6553 41.1484C88.6553 41.1484 115.767 34.4114 116.518 34.1387C117.893 33.6359 117.639 30.8126 116.67 30.0977H116.682ZM112.459 20.7434C112.459 20.7434 112.429 20.7858 112.411 20.8101C112.289 20.9252 112.168 21.0403 112.071 21.1312C111.968 20.695 111.853 20.2466 111.702 19.7983C111.635 19.5984 111.568 19.3924 111.49 19.1925C111.526 19.2106 111.568 19.2288 111.605 19.247C111.641 19.556 111.75 20.0346 112.108 20.3799C112.162 20.4344 112.241 20.489 112.326 20.5435C112.368 20.6101 112.417 20.6768 112.465 20.7374L112.459 20.7434ZM115.725 18.0413C115.737 17.9808 115.743 17.9141 115.749 17.8535C115.749 17.8051 115.749 17.7687 115.749 17.7263C116.1 17.8959 116.639 18.2473 116.67 18.2716C116.791 18.3806 116.851 18.4897 116.851 18.5987C116.851 18.6351 116.851 18.6654 116.839 18.7017C116.791 18.8653 116.633 19.0168 116.53 19.1076C116.5 19.1379 116.476 19.1561 116.458 19.1803C116.379 19.253 115.7 19.5075 115.658 19.6529V19.665C115.658 19.7741 115.658 19.9013 115.622 20.0225C115.579 20.1679 115.488 20.3133 115.294 20.4405C115.07 20.592 114.973 20.7313 114.907 20.8404C114.84 20.9373 114.822 20.9676 114.755 20.9797C114.652 20.9918 114.458 20.9555 114.143 20.8525C114.022 20.8161 113.919 20.7677 113.816 20.7192C113.986 20.5435 114.137 20.386 114.246 20.2527C114.501 20.2224 114.743 20.1133 114.913 19.9255C115.216 19.5923 115.658 18.3685 115.712 18.0292L115.725 18.0413ZM112.853 17.4294C112.998 17.4052 113.101 17.3204 113.174 17.2537C113.307 17.1689 113.41 17.1083 113.531 17.078C113.665 17.0478 113.804 17.0356 113.949 17.0356C114.155 17.0356 114.446 17.072 114.676 17.2174C114.949 17.387 114.901 17.7869 114.882 17.902C114.84 18.1807 114.44 19.1864 114.295 19.356C114.228 19.4348 114.034 19.4409 113.937 19.3742C113.749 19.247 113.834 18.9865 113.883 18.8774L113.095 18.5442C112.877 19.0713 112.95 19.5863 113.277 19.9255C113.277 19.9255 113.289 19.9316 113.295 19.9377C113.295 19.9377 113.283 19.9498 113.283 19.9558V19.9255C113.022 19.9437 112.841 19.8952 112.707 19.768C112.483 19.5499 112.447 19.1319 112.453 18.9865L112.205 18.5806C111.932 18.4533 111.538 18.2716 111.471 18.2473C111.417 18.2231 111.235 18.1686 111.066 18.1201C111.041 18.0656 111.017 18.005 110.993 17.9505C110.914 17.7808 110.835 17.6051 110.757 17.4355C111.338 17.5082 112.199 17.5627 112.859 17.4294H112.853ZM100.73 19.0471C100.572 18.8895 100.257 18.6896 99.7362 18.7199H99.712C99.7362 18.4897 99.7483 18.2897 99.7544 18.1201V18.0898V17.902C99.7544 17.7324 99.7483 17.6112 99.7423 17.5324V17.4355C99.7059 17.2113 99.506 17.0841 99.2758 17.1083C99.0456 17.1265 98.8759 17.3628 98.8941 17.593C98.8941 17.6536 98.9001 17.7566 98.9001 17.902V18.0959C98.8941 18.2655 98.882 18.4654 98.8517 18.7381C98.8456 18.7926 98.8396 18.8471 98.8335 18.9077H98.8214C98.7547 18.9259 98.6578 18.9622 98.5488 19.0168C97.9429 18.9744 97.5006 19.4045 97.3007 19.5984C97.0523 19.8225 96.8887 20.1376 96.8221 20.4829C96.7615 20.4102 96.707 20.3315 96.6524 20.2406L96.5979 20.1497C96.1011 19.1379 96.0708 18.6108 96.0708 18.3988V18.32C96.0769 17.8838 96.1617 17.4294 96.3192 17.0235C96.4283 16.7327 96.5919 16.4661 96.7615 16.1814C96.8766 15.9875 96.9917 15.7937 97.0947 15.5937C97.6158 14.5698 98.1368 13.4611 98.47 12.2494C98.6033 11.7526 98.7002 11.2437 98.7911 10.753C98.9304 10.0017 99.0698 9.28684 99.3303 8.6204C99.6817 7.71769 100.415 7.05126 101.402 6.74227C102.026 6.5484 102.741 6.4757 103.462 6.53629C104.274 6.60899 105.389 6.85739 106.098 7.66316C106.728 8.39018 106.903 9.39589 107.085 10.4561C107.14 10.7712 107.194 11.0862 107.261 11.3891C107.636 13.1279 108.442 14.7213 109.218 16.2602C109.551 16.9266 109.902 17.6112 110.205 18.2958C110.466 18.8835 110.696 19.4833 110.89 20.0649C111.041 20.5314 111.229 21.1796 111.369 21.943C111.429 22.2702 111.478 22.6216 111.514 22.9911C111.714 25.0147 111.441 27.4986 109.624 29.4555C109.509 29.5828 109.387 29.7039 109.266 29.819C108.618 30.4128 107.903 30.8126 107.206 30.9702C106.352 31.164 105.534 30.952 104.704 30.328C106.116 29.0678 107.206 27.4562 107.873 25.6569C108.854 23.0214 109.018 19.35 106.261 17.6718C105.286 17.078 103.765 16.7812 102.584 17.4597C101.899 17.8535 101.311 18.4897 100.912 19.2652C100.863 19.1803 100.803 19.1137 100.73 19.0471ZM102.814 28.1651C101.839 26.6505 101.245 25.0086 101.087 23.4092L101.069 23.3304L101.081 23.3122C101.317 22.9608 101.251 22.6276 101.221 22.458V22.4398C101.202 22.3732 101.19 22.3368 101.208 22.2338C101.281 21.8521 101.172 21.2099 101.172 21.2099C101.227 20.9191 101.293 20.6344 101.384 20.3557C101.681 19.4106 102.275 18.623 103.008 18.1989C103.88 17.696 105.08 17.9505 105.819 18.3988C108.133 19.8044 107.939 23.0275 107.073 25.36C106.443 27.0624 105.407 28.5771 104.062 29.7585C103.644 29.3344 103.226 28.8012 102.814 28.1651ZM100.621 35.1202C100.548 33.9085 100.403 32.824 100.185 31.8789C100.445 31.9335 100.706 31.9637 100.96 31.9637C101.257 32.6908 101.523 33.5389 101.748 34.472L102.366 34.6658H102.372C101.784 34.8173 101.196 34.9688 100.615 35.1142L100.621 35.1202ZM101.857 31.9032C102.584 31.7578 103.317 31.4185 104.032 30.8853C104.668 31.4003 105.328 31.7214 105.995 31.8305C104.807 31.9032 103.389 32.8362 102.414 33.6177C102.244 32.9997 102.057 32.4302 101.857 31.9032ZM102.511 34.6416C103.983 33.3875 105.286 32.6786 106.128 32.6786H106.158C106.746 32.6908 106.94 33.1512 106.994 33.4965C105.558 33.8601 104.038 34.2478 102.505 34.6416H102.511ZM107.83 33.2906C107.697 32.6786 107.334 32.0849 106.631 31.8971C106.885 31.8971 107.14 31.8668 107.394 31.8123C107.497 31.788 107.594 31.7638 107.697 31.7335C107.873 32.1879 108.024 32.6786 108.145 33.2057L108.279 33.1754L108.424 33.1391C108.23 33.1876 108.03 33.236 107.83 33.2906ZM108.975 32.9997C108.848 32.4302 108.685 31.8971 108.491 31.4064C108.594 31.3579 108.697 31.2973 108.794 31.2367C109.084 31.6426 109.466 32.2243 109.745 32.8059C109.49 32.8725 109.236 32.9331 108.975 32.9997Z" fill="#E1F857"/>
<path d="M103.844 11.5092C104.08 11.5092 104.268 11.3153 104.268 11.0851V9.97036C104.268 9.73408 104.074 9.54626 103.844 9.54626C103.614 9.54626 103.42 9.74014 103.42 9.97036V11.0851C103.42 11.3214 103.614 11.5092 103.844 11.5092Z" fill="#E1F857"/>
<path d="M105.352 11.5092C105.588 11.5092 105.776 11.3153 105.776 11.0851V9.97036C105.776 9.73408 105.582 9.54626 105.352 9.54626C105.122 9.54626 104.928 9.74014 104.928 9.97036V11.0851C104.928 11.3214 105.122 11.5092 105.352 11.5092Z" fill="#E1F857"/>
<path d="M104.413 13.9686C105.643 13.9686 106.642 12.9689 106.642 11.739H105.788C105.788 12.4964 105.17 13.1143 104.413 13.1143C103.656 13.1143 103.038 12.4964 103.038 11.739H102.183C102.183 12.9689 103.183 13.9686 104.413 13.9686Z" fill="#E1F857"/>
</g>
<defs>
<clipPath id="clip0_5_175">
<rect width="1494.72" height="48" fill="white" transform="translate(-1171.52 0.171356)"/>
</clipPath>
</defs>
</svg>
