<svg width="131" height="49" viewBox="0 0 131 49" fill="none" xmlns="http://www.w3.org/2000/svg">
<g clip-path="url(#clip0_5_249)">
<path d="M22.7754 11.138C22.7754 11.138 22.8057 11.138 22.8238 11.138C23.048 11.1137 23.2116 10.9077 23.1813 10.6836L23.0601 9.62333C23.0359 9.39917 22.8299 9.23559 22.6057 9.26588C22.3815 9.29012 22.218 9.49611 22.2483 9.72027L22.3695 10.7805C22.3937 10.9865 22.5694 11.144 22.7754 11.144V11.138Z" fill="#E1F857"/>
<path d="M24.2112 10.9677C24.2112 10.9677 24.2415 10.9677 24.2597 10.9677C24.4839 10.9434 24.6474 10.7374 24.6172 10.5133L24.496 9.45305C24.4717 9.22888 24.2658 9.0653 24.0416 9.0956C23.8174 9.11983 23.6539 9.32582 23.6842 9.54998L23.8053 10.6102C23.8296 10.8162 24.0053 10.9737 24.2112 10.9737V10.9677Z" fill="#E1F857"/>
<path d="M21.2965 11.5446C21.4238 12.6351 22.3507 13.4348 23.4231 13.4348C23.5079 13.4348 23.5866 13.4348 23.6715 13.4227C24.241 13.356 24.7499 13.0713 25.1012 12.623C25.4526 12.1746 25.6163 11.6173 25.5496 11.0478L24.7378 11.1447C24.8226 11.8657 24.3016 12.526 23.5745 12.6108C22.8536 12.6957 22.1932 12.1746 22.1084 11.4537L21.2965 11.5506V11.5446Z" fill="#E1F857"/>
<path d="M47.8938 38.7831C47.1789 37.9289 45.1312 37.6502 43.2227 37.4866C43.1864 37.4866 43.1561 37.4866 43.1258 37.4866C43.1985 37.3654 43.2894 37.2321 43.3681 37.1231C43.7377 36.5778 44.0891 36.0689 43.8467 35.6266C43.7619 35.4752 43.6286 35.3722 43.4711 35.3419C43.1318 35.2692 42.7986 35.5115 42.423 35.8023C42.2413 35.9356 41.9202 36.178 41.7747 36.2143C41.6475 36.0507 41.5991 35.766 41.6415 35.4752C41.7142 34.9663 42.0474 34.4937 42.5503 34.1847C43.5135 33.591 44.0043 33.0397 44.1012 32.4581C44.1618 32.0703 44.0467 31.6947 43.7498 31.3433C43.5378 31.0828 43.247 30.9374 42.9198 30.9192C42.2776 30.8829 41.4839 31.3191 40.4782 32.2702C40.3449 32.3975 40.2238 32.5065 40.1208 32.5913C40.2965 32.1794 40.46 31.7674 40.5873 31.3372C41.0962 29.5682 41.3628 27.7264 41.3688 25.8846C41.3688 25.5211 41.072 25.2545 40.7327 25.2545C40.6539 25.2545 40.5691 25.2666 40.4904 25.303C39.8724 25.5635 38.9818 25.9937 38.2669 26.3875C38.1942 26.3329 38.1094 26.2905 38.0245 26.2542C37.3399 25.9694 36.3585 26.2239 35.8799 26.5026C35.5406 26.6964 34.9953 27.0599 34.6076 27.3205C34.0744 26.0845 33.2141 25.6059 32.6265 25.2788C32.5174 25.2182 32.4144 25.1636 32.3235 25.1091C32.7537 23.025 32.4023 20.6258 31.2694 18.1843C31.1967 18.0207 31.1118 17.8511 31.0331 17.6875C31.0876 17.6208 31.1482 17.5542 31.2209 17.4875L31.2996 17.4209C31.3784 17.3482 31.4572 17.2876 31.5299 17.2331C31.4935 17.5905 31.5601 17.9359 31.7298 18.2206C31.8691 18.469 32.166 19.0082 32.7537 19.1476C32.8385 19.2324 32.9233 19.2869 32.9778 19.3293C33.2323 19.505 33.6625 19.7292 33.8018 19.7777C34.2925 19.9594 34.65 19.8625 34.8499 19.7534C34.959 19.7049 35.0559 19.6322 35.1468 19.5535C35.4194 19.293 35.5345 18.9537 35.6072 18.6811L35.6254 18.6265C35.6799 18.4508 35.6739 18.2873 35.6618 18.0449V17.948C35.6921 17.9238 35.7223 17.8935 35.7587 17.8632C36.0374 17.6027 36.2009 17.2634 36.2433 16.8514C36.2555 16.7484 36.2737 16.7121 36.304 16.6575C36.304 16.6575 36.3161 16.6394 36.3221 16.6272C36.4009 16.4818 36.5584 16.185 36.4372 15.7851V15.7609L36.4251 15.7427C36.3282 15.4822 36.1343 15.252 35.8253 14.9309C35.7102 14.8218 35.5587 14.6825 35.377 14.5613C35.1528 14.3977 34.9287 14.2765 34.7287 14.2099C34.2743 14.0403 33.7897 14.01 33.3777 14.1251C33.1172 13.9918 32.7294 13.8343 32.2569 13.7434C31.2875 13.5556 30.2576 13.804 29.4276 14.4098C29.3427 14.4704 29.2579 14.5371 29.1792 14.6098C28.3007 13.2769 27.3919 11.8956 26.877 10.3931C26.7861 10.1204 26.7012 9.83568 26.6225 9.55699C26.3074 8.49675 25.9864 7.40623 25.1321 6.62468C24.1628 5.75226 22.8541 5.59474 21.9211 5.63109C21.1214 5.65532 20.3398 5.82496 19.6673 6.12789C18.5465 6.62468 17.7347 7.55769 17.4378 8.68457C17.244 9.4237 17.1894 10.1931 17.141 10.9262C17.1046 11.3927 17.0743 11.8713 17.0016 12.3257C16.832 13.4526 16.4563 14.5674 16.105 15.5064C15.8929 16.088 15.6748 16.6696 15.4567 17.2452L15.4385 17.2997C15.2992 17.221 15.2265 17.1846 15.1659 17.1604C14.6994 16.9605 14.1783 16.8575 13.6634 16.8575C13.5058 16.8575 13.3483 16.8635 13.1908 16.8878C12.1669 17.015 11.2521 17.5481 10.6765 18.3478C10.3918 18.7356 10.2222 19.1173 10.1192 19.396C9.74354 19.5959 9.41031 19.9473 9.19827 20.3835C9.10133 20.5713 9.02257 20.8137 8.96804 21.0863C8.91957 21.2983 8.90747 21.5043 8.90141 21.6618C8.90141 22.1102 8.91353 22.407 9.02258 22.6615V22.6797L9.04078 22.6978C9.22859 23.0735 9.54967 23.1825 9.70113 23.237H9.71932H9.73748C9.79807 23.2613 9.83444 23.2673 9.9132 23.34C10.2282 23.6066 10.5796 23.7399 10.9613 23.7399C11.0098 23.7399 11.0522 23.7399 11.0946 23.7338C11.1188 23.7641 11.137 23.7884 11.1552 23.8065C11.3188 23.9883 11.4217 24.1095 11.5853 24.2003C11.5853 24.2003 11.6338 24.2306 11.658 24.2428C11.8761 24.376 12.1912 24.5457 12.5668 24.5457C12.688 24.5457 12.8091 24.5275 12.9242 24.4912C13.1363 24.4306 13.4695 24.2549 13.6998 23.7884C13.7664 23.6611 13.9239 23.1946 13.9905 22.8978C14.0027 22.8311 14.0208 22.7281 14.0269 22.607C14.3601 22.1041 14.2086 21.5043 14.1359 21.2377C14.0632 20.9106 13.8754 20.6077 13.6028 20.3774C13.6937 20.3653 13.7906 20.3593 13.8997 20.3532H14.0027C14.3238 20.3532 14.5903 20.3956 14.8084 20.4804C15.0871 20.5955 15.2992 20.7712 15.3779 20.953C15.3779 20.953 15.7475 20.1836 15.7293 20.0503C15.5476 19.8988 15.3416 19.7777 15.1235 19.6868C14.766 19.5474 14.3844 19.499 14.0027 19.499H13.8694C13.4937 19.5111 13.1121 19.5777 12.7849 19.7534C12.6032 19.8504 12.4396 19.9776 12.3123 20.1412C12.2154 20.2563 11.9246 20.638 12.1609 20.741C12.2154 20.7652 12.2699 20.7652 12.3305 20.7712C12.5123 20.7834 12.7001 20.8197 12.8637 20.9045C13.0757 21.0136 13.2514 21.1953 13.3059 21.4316C13.3605 21.6437 13.4574 22.0011 13.2757 22.1889C13.209 22.2616 13.1121 22.2859 13.0151 22.3101C12.997 22.3222 12.9848 22.3222 12.9667 22.3222C12.9545 22.3222 12.9424 22.3222 12.9364 22.3162C12.8334 22.2737 12.8879 22.0859 12.8213 22.0193C12.7183 22.0981 12.7304 22.304 12.7364 22.4373C12.7425 22.5585 12.7364 22.6857 12.7546 22.813C12.7607 22.8614 12.7909 23.0068 12.8334 23.0068C12.8455 23.0068 12.8576 22.9886 12.8758 22.9402C12.9121 22.8251 12.8758 22.6554 12.9606 22.5585C12.9606 22.5585 12.9606 22.5464 12.9727 22.5403C13.0091 22.51 13.0636 22.4919 13.1121 22.4919H13.1484C13.1848 22.4919 13.1787 22.5948 13.1484 22.716C13.0939 22.9705 12.9545 23.3582 12.9303 23.4067C12.8576 23.5521 12.7728 23.643 12.6637 23.6733C12.6334 23.6854 12.5971 23.6914 12.5608 23.6914C12.3911 23.6914 12.2033 23.5824 12.0882 23.5036C12.0518 23.4854 12.0276 23.4673 11.9973 23.4552C11.9003 23.4067 11.4763 22.819 11.3127 22.819C11.2037 22.8493 11.0885 22.8857 10.9552 22.8857C10.8098 22.8857 10.6402 22.8372 10.4645 22.6857C10.2585 22.51 10.0949 22.4555 9.97377 22.4192C9.86472 22.3828 9.82838 22.3707 9.79809 22.3101C9.75568 22.2132 9.74355 22.0193 9.74961 21.6861C9.74961 21.5286 9.7678 21.3832 9.79809 21.2499C9.83444 21.056 9.88894 20.8864 9.96164 20.747C10.1797 20.2987 10.5251 20.0927 10.725 20.0624C10.7735 20.0563 10.8159 20.0139 10.828 19.9655C10.8522 19.8504 11.0037 19.3354 11.3611 18.8386C11.8155 18.2085 12.5244 17.8208 13.2938 17.7238C13.415 17.7117 13.5362 17.7056 13.6573 17.7056C14.0633 17.7056 14.4631 17.7844 14.8327 17.9419C14.9236 17.9783 15.6627 18.3903 15.8989 18.5054C15.9353 18.3903 16.2201 17.53 16.2201 17.53C16.4382 16.9483 16.6563 16.3667 16.8683 15.7851C17.2318 14.8036 17.6256 13.6465 17.8074 12.4469C17.8801 11.9561 17.9164 11.4594 17.9467 10.9807C18.0012 10.2477 18.0497 9.55699 18.2254 8.8845C18.4617 7.98784 19.0918 7.27294 19.9945 6.86702C20.57 6.61257 21.2426 6.4611 21.9393 6.44293C22.7269 6.41869 23.8113 6.5338 24.5747 7.23053C25.2593 7.8485 25.5319 8.78756 25.8288 9.78115C25.9136 10.072 25.9985 10.3688 26.0954 10.6536C26.6467 12.2651 27.5918 13.6949 28.5067 15.0763C28.5369 15.1247 28.5673 15.1732 28.6036 15.2217C28.7732 15.4822 28.9429 15.7427 29.1125 16.0032C29.3003 16.3061 29.4942 16.6091 29.6699 16.912C29.8032 17.1362 29.9304 17.3603 30.0516 17.5845C30.2212 17.8995 30.3787 18.2146 30.5241 18.5235C30.5484 18.5781 30.5726 18.6326 30.5968 18.6932C31.3663 20.4259 32.6992 24.4184 30.3545 27.6173C30.2576 27.7506 30.1546 27.8778 30.0516 27.999C29.5003 28.6412 28.8641 29.1017 28.2098 29.3319C27.4282 29.6045 26.6104 29.4894 25.7622 28.9987C26.9618 27.6355 27.8281 25.9815 28.2643 24.1882C28.9065 21.5649 28.6521 18.0449 25.8409 16.7545C24.8413 16.294 23.363 16.1789 22.3088 16.9544C21.4909 17.5602 20.8972 18.5599 20.6791 19.705C20.1884 22.298 21.0608 25.2 23.0783 27.6597C23.5508 28.2414 24.0294 28.726 24.502 29.1138C23.5387 29.968 22.5512 30.3012 21.4788 30.1316C20.4731 29.9741 19.5098 29.3985 19.0251 28.6654L18.3405 29.1138C18.7767 29.762 19.4977 30.3194 20.3217 30.6526C19.9097 31.7432 19.74 32.6277 20.2671 34.1423C19.8673 34.4089 19.1463 34.9542 18.4981 35.7478C17.6014 36.8383 17.9528 37.8865 18.0922 38.2015C17.5772 38.4378 17.0561 38.668 16.5351 38.8801C15.7354 38.4923 15.2023 38.3106 14.7963 38.4378C14.6025 38.4984 14.457 38.6195 14.3662 38.7892C14.3177 38.874 14.2874 38.9649 14.2692 39.0618C13.5543 39.0315 12.3911 38.4136 11.3611 37.8743C10.0101 37.1655 9.22252 36.7717 8.68937 36.9353C8.51368 36.9898 8.38038 37.1049 8.29556 37.2624C7.98658 37.8562 8.33799 38.5832 8.61668 39.1709C8.67726 39.292 8.74996 39.4556 8.79842 39.5768C8.7439 39.5768 8.68332 39.5768 8.61668 39.5889C6.4538 39.7343 5.14516 39.9463 4.86647 40.6431C4.80589 40.8067 4.74531 41.1338 5.0967 41.5216C5.82977 42.3213 6.82337 42.4788 7.48374 42.4788C7.8836 42.4788 8.16228 42.4243 8.19257 42.4182L8.02898 41.6488C8.02898 41.6488 6.54465 41.9396 5.67829 40.9884C5.64194 40.9521 5.62378 40.9278 5.61772 40.9218C5.75101 40.7703 6.34472 40.528 8.67118 40.3765C8.84082 40.3644 8.98019 40.3523 9.07713 40.3462C9.37399 40.3159 9.50727 40.1523 9.5618 40.0554C9.74961 39.7222 9.56179 39.3284 9.32551 38.8316C9.17405 38.5165 8.96201 38.0682 8.96201 37.7895C8.96201 37.7532 8.96805 37.7168 8.97411 37.6865C9.30732 37.6865 10.313 38.2136 10.9916 38.5711C12.0821 39.1406 13.215 39.7343 14.0814 39.8312C14.1359 39.8312 14.1844 39.8434 14.2329 39.8434C14.2632 39.8434 14.2935 39.8434 14.3238 39.8434C14.4086 40.1523 14.554 40.4553 14.6873 40.7339C14.7357 40.8369 14.7963 40.9642 14.8448 41.0732C14.8084 41.0732 14.7721 41.0732 14.7297 41.0853C14.0208 41.1338 13.4029 41.1823 12.8818 41.261C11.7974 41.4246 11.137 41.6791 10.9431 42.1637C10.8704 42.3394 10.8098 42.6908 11.1733 43.0968C11.9246 43.9147 12.9303 44.0722 13.6028 44.0722C14.0027 44.0722 14.2874 44.0116 14.3177 44.0055L14.2268 43.5754L14.1359 43.1392C14.1359 43.1392 12.6819 43.4239 11.8277 42.497C11.8216 42.4849 11.8095 42.4788 11.8034 42.4667C11.9428 42.3637 12.3184 42.2243 13.3181 42.1032C13.3847 42.1032 13.4513 42.085 13.524 42.0789C13.8754 42.0426 14.2935 42.0062 14.7903 41.9699C14.966 41.9578 15.1053 41.9456 15.1962 41.9396C15.5173 41.9093 15.6627 41.7275 15.7233 41.6185C15.7778 41.5216 15.802 41.4246 15.8081 41.3156C15.8081 41.0369 15.6687 40.7218 15.487 40.3523C15.4385 40.2553 15.384 40.1342 15.3294 40.013C15.2628 39.8494 15.1901 39.6798 15.1538 39.5041C15.1417 39.4374 15.1174 39.3587 15.1356 39.292C15.1477 39.2496 15.178 39.2436 15.2144 39.2557C15.2568 39.2678 15.9535 39.5828 16.111 39.6616C16.2201 39.7161 16.3291 39.7706 16.4382 39.8252C16.6684 39.9342 16.8926 40.0554 17.0864 40.1584C17.5105 40.3826 17.9407 40.6128 18.3648 40.8067C19.0857 41.152 19.7825 41.4125 20.352 41.4367C21.2668 41.4731 21.6545 41.673 21.7999 41.7881C21.8605 41.8305 21.8787 41.8608 21.8787 41.8608L22.2846 41.673L22.7027 41.5276C22.6299 41.3216 22.2483 40.631 20.3883 40.5522C20.146 40.5522 19.8552 40.4674 19.528 40.3462C20.9396 39.601 22.0544 38.3348 23.5205 37.6805C24.502 37.2382 25.6107 37.0928 26.5376 36.5415C27.9796 35.6933 28.7611 34.009 30.1606 33.1003C30.5302 32.8579 31.0573 32.6822 31.3602 33.1063C31.5299 33.3547 31.5298 33.6819 31.3966 33.9484C30.821 35.1238 30.2212 36.281 29.5851 37.42L33.4322 34.106C33.6382 33.9303 33.929 33.8515 34.1835 33.9424C34.4804 34.0514 34.5106 34.2938 34.5228 34.524C34.547 35.0026 34.5409 35.4812 34.4924 35.9538C35.1649 35.5661 35.6193 34.8936 36.0858 34.2756C36.5584 33.6576 37.1218 33.0457 37.8731 32.8519C38.6304 32.658 39.4725 33.0578 39.5452 33.8333C39.9269 33.7728 40.3934 33.4638 41.0356 32.8519C42.108 31.8401 42.6411 31.7129 42.8653 31.725C42.9683 31.725 43.041 31.7674 43.1137 31.8522C43.2954 32.0764 43.3015 32.2218 43.2833 32.3127C43.247 32.5368 43.0167 32.9185 42.114 33.4759C41.4052 33.9121 40.9326 34.5906 40.8236 35.348C40.7448 35.9053 40.8781 36.4385 41.181 36.7778C41.6415 37.2927 42.2594 36.9171 42.732 36.5718C42.7138 36.6021 42.7017 36.6263 42.6835 36.6445C42.3382 37.1534 42.0656 37.5472 42.2352 37.9289C42.2837 38.0379 42.417 38.2257 42.732 38.2621C42.8229 38.2742 42.9683 38.2863 43.144 38.2984C44.0164 38.3711 46.67 38.5953 47.2577 39.3041C47.3425 39.395 47.3486 39.4677 47.3425 39.5223L48.1544 39.601C48.1846 39.3041 48.0938 39.0194 47.8878 38.7771L47.8938 38.7831ZM30.3787 16.494C30.3545 16.4515 30.3303 16.4091 30.3 16.3667C30.1606 16.1304 30.0152 15.8942 29.8698 15.6639C29.8032 15.567 29.7426 15.4701 29.682 15.3731C29.6699 15.355 29.6578 15.3428 29.6517 15.3247C29.7426 15.2398 29.8274 15.1671 29.9304 15.0944C30.5544 14.634 31.336 14.428 32.0994 14.5734C32.6992 14.6885 33.1656 14.9612 33.2626 15.0278C33.305 15.052 33.3595 15.0581 33.4019 15.0278C33.5655 14.9127 33.9593 14.8218 34.4258 14.9975C34.5773 15.052 34.7287 15.1369 34.8923 15.252C35.0074 15.3307 35.1104 15.4277 35.2255 15.5367C35.4618 15.773 35.583 15.9245 35.6193 16.0214C35.6375 16.088 35.6193 16.1244 35.5648 16.2213C35.5042 16.3304 35.4194 16.4879 35.3952 16.7545C35.371 16.9907 35.28 17.1362 35.171 17.2391C35.0801 17.33 34.965 17.3846 34.8681 17.433C34.8681 17.433 34.864 17.4371 34.856 17.4451C34.7469 17.5421 34.8378 18.263 34.8075 18.366C34.7954 18.3963 34.7893 18.4266 34.7772 18.463C34.7409 18.5962 34.6803 18.8083 34.5591 18.9234C34.5349 18.9476 34.5046 18.9658 34.4743 18.984C34.3713 19.0385 34.2501 19.0264 34.0987 18.9719C34.0441 18.9537 33.6806 18.7659 33.4625 18.6205C33.3656 18.5478 33.2929 18.4811 33.3171 18.4508C33.3171 18.4448 33.3292 18.4327 33.3413 18.4266C33.3777 18.3903 33.4261 18.3721 33.4746 18.366C33.4867 18.366 33.4928 18.366 33.4989 18.3721C33.6261 18.3842 33.717 18.5357 33.82 18.5902C33.8624 18.6144 33.8866 18.6144 33.8987 18.6084C33.923 18.5781 33.8502 18.4569 33.82 18.4145C33.7473 18.3115 33.6564 18.2206 33.5776 18.1297C33.5776 18.1297 33.5736 18.1297 33.5655 18.1297C33.4867 18.0328 33.3535 17.8753 33.2262 17.8935C33.2262 17.9843 33.3959 18.0873 33.3474 18.1843C33.3474 18.1964 33.3353 18.2024 33.3292 18.2085C33.3171 18.2206 33.305 18.2327 33.2868 18.2388C33.202 18.2873 33.1111 18.3357 33.0142 18.3297H33.0081C32.7537 18.3176 32.578 17.9904 32.4689 17.7965C32.3478 17.5905 32.3538 17.3361 32.4326 17.1119C32.4932 16.9362 32.6022 16.7787 32.7234 16.6454C32.7658 16.603 32.8082 16.5667 32.8264 16.5061C32.9293 16.2698 32.4568 16.191 32.3053 16.1789C32.0993 16.1426 31.8934 16.1668 31.6995 16.2213C31.336 16.3183 31.0149 16.5303 30.7362 16.7787C30.6999 16.809 30.6695 16.8393 30.6393 16.8696C30.6271 16.8817 30.6211 16.8878 30.609 16.8999C30.5363 16.7666 30.4575 16.6333 30.3787 16.5V16.494ZM23.7205 27.1448C21.8545 24.8668 21.0426 22.2132 21.491 19.8564C21.6667 18.9113 22.1453 18.0995 22.7996 17.6148C23.1934 17.324 23.6781 17.2089 24.1688 17.2089C24.6595 17.2089 25.126 17.324 25.5077 17.4936C27.8645 18.5841 28.0402 21.674 27.4707 23.9944C27.0587 25.6907 26.2347 27.2538 25.0836 28.5261C24.6353 28.1687 24.1809 27.7082 23.7205 27.1448ZM18.8434 37.8562C18.7646 37.6805 18.5344 37.0019 19.1403 36.2628C19.9642 35.251 20.9638 34.6694 20.976 34.6633L21.2789 34.4816L21.1517 34.1544C20.564 32.658 20.7094 31.9431 21.1153 30.901C21.1941 30.9131 21.2789 30.9313 21.3576 30.9434C21.5394 30.9737 21.7151 30.9919 21.8908 30.9919C21.8544 31.9007 21.8969 33.0457 22.3755 34.0212C22.636 34.5604 22.7208 35.3904 22.7147 35.875C22.5996 35.9417 22.4906 36.0023 22.3755 36.0629C21.2122 36.6929 20.0369 37.2988 18.8434 37.8562ZM31.7358 30.4285C29.0277 32.143 26.3135 33.8576 23.5205 35.4328C23.4781 34.8148 23.3327 34.1181 23.1086 33.6637C22.7026 32.8337 22.6784 31.7735 22.7087 30.9313C23.5751 30.7799 24.399 30.3376 25.1806 29.6045C26.3014 30.3134 27.4101 30.483 28.4885 30.1013C29.2822 29.8226 30.0213 29.2955 30.6756 28.5382C30.7968 28.3989 30.9119 28.2535 31.0209 28.102C31.1785 27.89 31.3178 27.6719 31.439 27.4477C31.6147 27.6173 31.7964 27.8597 31.9661 28.1929C32.275 28.8109 32.4629 29.4409 32.5658 29.9014C32.2872 30.0771 32.0145 30.2528 31.7358 30.4285ZM36.3706 27.5143C35.3406 28.1505 34.3228 28.7927 33.2989 29.4349C33.1717 28.9684 32.9839 28.3928 32.6992 27.8294C32.4265 27.2781 32.1054 26.9145 31.8267 26.6843C31.9418 26.442 32.0327 26.1936 32.1175 25.9331C32.1539 25.9512 32.1902 25.9755 32.2266 25.9937C32.8445 26.3329 33.614 26.757 34.0138 28.0717L34.1774 28.6109L34.6379 28.2898C34.6379 28.2898 35.7647 27.5022 36.2858 27.2054C36.522 27.066 36.9522 26.9388 37.3218 26.9388C37.0067 27.1266 36.6917 27.3205 36.3706 27.5143Z" fill="#E1F857"/>
<path d="M39.1269 38.8975C39.0602 38.8975 38.9936 38.8975 38.9391 38.8914C38.9875 38.7581 39.0663 38.5885 39.1208 38.4613C39.3995 37.8494 39.7509 37.0799 39.4177 36.4741C39.3268 36.3105 39.1814 36.1954 38.9996 36.1409C38.4423 35.9773 37.6304 36.4014 36.237 37.1647C35.1767 37.7464 33.9711 38.4067 33.232 38.4552C31.2812 38.5703 30.9358 39.3337 30.8874 39.4791L31.6507 39.7699C31.6507 39.7699 31.8991 39.3579 33.2804 39.2731C34.2074 39.2186 35.4373 38.54 36.6308 37.8857C37.3336 37.498 38.3756 36.9285 38.721 36.9224C38.7937 37.2011 38.5453 37.7464 38.3756 38.122C38.1394 38.643 37.9515 39.055 38.1515 39.4003C38.2121 39.5033 38.3575 39.673 38.6664 39.6972C38.7634 39.7033 38.9088 39.7093 39.0905 39.7214C41.6533 39.8426 42.2046 40.1031 42.2955 40.194C42.2955 40.194 42.2833 40.2303 42.2228 40.303C41.3382 41.3088 39.7994 41.0361 39.7873 41.0301L39.6297 41.8358C39.6297 41.8358 39.9145 41.8904 40.284 41.8904C40.9686 41.8904 42.0531 41.7268 42.8347 40.8483C43.1921 40.4424 43.1255 40.0971 43.0528 39.9274C42.7498 39.2125 41.3867 39.0065 39.1269 38.9035V38.8975Z" fill="#E1F857"/>
<path d="M64.0229 34.1662C62.6867 34.1662 61.4912 33.9376 60.4362 33.4805C59.3989 33.0234 58.5726 32.3553 57.9572 31.4762C57.3419 30.5971 57.0254 29.5334 57.0078 28.2851H60.911C60.9285 28.8126 61.0604 29.2873 61.3065 29.7092C61.5703 30.1312 61.9307 30.4652 62.3878 30.7114C62.8449 30.9575 63.3812 31.0806 63.9965 31.0806C64.5416 31.0806 65.0075 30.9927 65.3943 30.8169C65.7987 30.6411 66.1064 30.3949 66.3173 30.0785C66.5459 29.762 66.6602 29.3752 66.6602 28.9181C66.6602 28.4258 66.5283 28.0038 66.2646 27.6522C66.0184 27.3005 65.6756 27.0016 65.2361 26.7555C64.7965 26.5094 64.2866 26.2896 63.7064 26.0962C63.1438 25.8852 62.5373 25.6742 61.8867 25.4632C60.4275 24.9885 59.311 24.3556 58.5374 23.5644C57.7814 22.7732 57.4034 21.7183 57.4034 20.3997C57.4034 19.2745 57.6671 18.3163 58.1946 17.5251C58.7396 16.7339 59.4868 16.1274 60.4362 15.7054C61.4032 15.2834 62.4933 15.0725 63.7064 15.0725C64.9547 15.0725 66.0536 15.2922 67.003 15.7318C67.9524 16.1537 68.6997 16.7691 69.2447 17.5778C69.8073 18.3866 70.1062 19.3448 70.1414 20.4525H66.1855C66.1679 20.0481 66.0536 19.6789 65.8426 19.3448C65.6316 18.9932 65.3415 18.7119 64.9723 18.5009C64.6031 18.2899 64.1636 18.1844 63.6537 18.1844C63.2142 18.1668 62.8098 18.2372 62.4406 18.3954C62.0889 18.5361 61.8076 18.7558 61.5966 19.0547C61.3857 19.336 61.2802 19.6964 61.2802 20.136C61.2802 20.5755 61.3857 20.9447 61.5966 21.2436C61.8076 21.5249 62.0977 21.7711 62.4669 21.9821C62.8537 22.193 63.3021 22.3952 63.8119 22.5886C64.3218 22.7645 64.8756 22.9491 65.4734 23.1425C66.4052 23.4589 67.258 23.8369 68.0316 24.2765C68.8051 24.6984 69.4205 25.2523 69.8776 25.938C70.3523 26.6236 70.5897 27.5291 70.5897 28.6543C70.5897 29.6389 70.3348 30.5532 69.8249 31.3971C69.315 32.2234 68.5766 32.8915 67.6096 33.4014C66.6426 33.9113 65.447 34.1662 64.0229 34.1662ZM78.5132 34.1662C77.4407 34.1662 76.5177 33.9464 75.7441 33.5069C74.9881 33.0498 74.4079 32.3817 74.0035 31.5026C73.5991 30.6235 73.3969 29.5422 73.3969 28.2587V20.5579H77.0891V27.8895C77.0891 28.9268 77.3001 29.718 77.722 30.2631C78.1616 30.7905 78.8385 31.0542 79.7527 31.0542C80.3329 31.0542 80.8516 30.9224 81.3087 30.6586C81.7658 30.3949 82.1175 30.0169 82.3636 29.5246C82.6273 29.0148 82.7592 28.3906 82.7592 27.6522V20.5579H86.4514V33.8497H83.2075L82.9174 31.7136C82.5306 32.452 81.9592 33.0498 81.2032 33.5069C80.4648 33.9464 79.5681 34.1662 78.5132 34.1662ZM89.935 33.8497V20.5579H93.2052L93.5481 23.0106C93.8821 22.4304 94.2865 21.9381 94.7612 21.5337C95.2359 21.1294 95.7897 20.8129 96.4227 20.5843C97.0556 20.3558 97.7413 20.2415 98.4797 20.2415V24.1446H97.2402C96.7128 24.1446 96.2205 24.2062 95.7634 24.3292C95.3238 24.4523 94.937 24.6545 94.603 24.9358C94.2865 25.1995 94.0403 25.5687 93.8645 26.0434C93.7063 26.5006 93.6272 27.0808 93.6272 27.784V33.8497H89.935ZM101.409 33.8497V23.6435H99.616V20.5579H101.409V19.4503C101.409 18.3251 101.603 17.4284 101.99 16.7603C102.376 16.0922 102.913 15.6087 103.598 15.3098C104.302 15.0109 105.128 14.8615 106.077 14.8615H107.554V17.9998H106.631C106.086 17.9998 105.69 18.1141 105.444 18.3427C105.216 18.5536 105.102 18.9141 105.102 19.4239V20.5579H113.488V33.8497H109.796V23.6435H105.102V33.8497H101.409ZM111.668 18.8174C111 18.8174 110.455 18.624 110.033 18.2372C109.611 17.8504 109.4 17.3581 109.4 16.7603C109.4 16.1801 109.611 15.6966 110.033 15.3098C110.455 14.923 111 14.7296 111.668 14.7296C112.336 14.7296 112.881 14.923 113.303 15.3098C113.725 15.6966 113.936 16.1801 113.936 16.7603C113.936 17.3581 113.725 17.8504 113.303 18.2372C112.881 18.624 112.336 18.8174 111.668 18.8174ZM117.054 33.8497V20.5579H120.298L120.562 22.7205C120.966 21.9821 121.538 21.3843 122.276 20.9272C123.032 20.47 123.938 20.2415 124.993 20.2415C126.083 20.2415 127.006 20.4788 127.762 20.9535C128.518 21.4107 129.089 22.0788 129.476 22.9579C129.88 23.8369 130.083 24.9182 130.083 26.2017V33.8497H126.417V26.5445C126.417 25.5248 126.197 24.7424 125.757 24.1974C125.335 23.6348 124.659 23.3534 123.727 23.3534C123.164 23.3534 122.654 23.4941 122.197 23.7754C121.74 24.0391 121.38 24.4259 121.116 24.9358C120.87 25.4281 120.747 26.0347 120.747 26.7555V33.8497H117.054ZM139.184 39.9682C137.918 39.9682 136.81 39.8099 135.861 39.4935C134.911 39.1946 134.173 38.7287 133.645 38.0957C133.135 37.4804 132.88 36.7156 132.88 35.8013C132.88 35.1684 133.039 34.5706 133.355 34.008C133.689 33.4454 134.173 32.9443 134.806 32.5047C135.439 32.0652 136.212 31.6872 137.126 31.3707L138.471 33.2168C137.663 33.4629 137.074 33.7794 136.705 34.1662C136.353 34.553 136.177 34.975 136.177 35.4321C136.177 35.8189 136.309 36.1441 136.573 36.4079C136.836 36.6716 137.188 36.865 137.628 36.9881C138.085 37.1287 138.595 37.199 139.157 37.199C139.702 37.199 140.177 37.1287 140.581 36.9881C140.986 36.865 141.302 36.6716 141.531 36.4079C141.759 36.1441 141.874 35.8365 141.874 35.4848C141.874 35.0101 141.715 34.6321 141.399 34.3508C141.082 34.0695 140.432 33.8937 139.447 33.8234C138.568 33.753 137.777 33.6563 137.074 33.5333C136.388 33.3926 135.781 33.2344 135.254 33.0586C134.727 32.8652 134.269 32.6542 133.883 32.4256C133.513 32.197 133.223 31.9685 133.012 31.7399V31.1334L135.861 28.0478L138.471 28.8653L135.069 32.241L136.151 30.3949C136.344 30.5004 136.529 30.6059 136.705 30.7114C136.898 30.7993 137.135 30.8872 137.417 30.9751C137.698 31.0454 138.058 31.1158 138.498 31.1861C138.955 31.2388 139.526 31.3004 140.212 31.3707C141.372 31.4762 142.322 31.696 143.06 32.03C143.799 32.3465 144.344 32.786 144.695 33.3487C145.065 33.9113 145.249 34.597 145.249 35.4057C145.249 36.1969 145.029 36.9353 144.59 37.621C144.168 38.3243 143.509 38.8869 142.612 39.3089C141.715 39.7484 140.572 39.9682 139.184 39.9682ZM139.21 29.9466C138.102 29.9466 137.144 29.7356 136.335 29.3136C135.527 28.8741 134.902 28.2939 134.463 27.5731C134.041 26.8346 133.83 26.0083 133.83 25.094C133.83 24.1974 134.041 23.3886 134.463 22.6678C134.902 21.9293 135.527 21.3403 136.335 20.9008C137.144 20.4612 138.102 20.2415 139.21 20.2415C140.335 20.2415 141.293 20.4612 142.085 20.9008C142.893 21.3403 143.509 21.9293 143.931 22.6678C144.353 23.3886 144.564 24.1974 144.564 25.094C144.564 26.0083 144.353 26.8346 143.931 27.5731C143.509 28.2939 142.893 28.8741 142.085 29.3136C141.293 29.7356 140.335 29.9466 139.21 29.9466ZM139.21 27.1511C139.86 27.1511 140.388 26.9841 140.792 26.65C141.214 26.2984 141.425 25.7885 141.425 25.1204C141.425 24.4523 141.214 23.9512 140.792 23.6172C140.388 23.2655 139.86 23.0897 139.21 23.0897C138.559 23.0897 138.023 23.2655 137.601 23.6172C137.179 23.9512 136.968 24.4523 136.968 25.1204C136.968 25.7885 137.179 26.2984 137.601 26.65C138.023 26.9841 138.559 27.1511 139.21 27.1511ZM141.399 23.1425L140.819 20.5579H146.304V22.7205L141.399 23.1425Z" fill="#E1F857"/>
</g>
<defs>
<clipPath id="clip0_5_249">
<rect width="1494.72" height="48" fill="white" transform="translate(-468.507 0.849731)"/>
</clipPath>
</defs>
</svg>
