<svg width="131" height="49" viewBox="0 0 131 49" fill="none" xmlns="http://www.w3.org/2000/svg">
<g clip-path="url(#clip0_5_323)">
<path d="M-26.3611 33.8719V15.4111H-18.6866C-17.4032 15.4111 -16.3219 15.6133 -15.4428 16.0177C-14.5637 16.4221 -13.8956 16.9847 -13.4385 17.7056C-12.9814 18.4088 -12.7528 19.2352 -12.7528 20.1846C-12.7528 21.0988 -12.955 21.8724 -13.3594 22.5054C-13.7637 23.1383 -14.3 23.6306 -14.9681 23.9822C-15.6186 24.3163 -16.3395 24.5097 -17.1306 24.5624L-16.7087 24.2723C-15.8648 24.3075 -15.1175 24.5361 -14.467 24.958C-13.7989 25.38 -13.2803 25.9338 -12.911 26.6195C-12.5242 27.2876 -12.3308 28.026 -12.3308 28.8348C-12.3308 29.8194 -12.5682 30.6984 -13.0429 31.472C-13.5176 32.2281 -14.2121 32.817 -15.1263 33.239C-16.023 33.661 -17.1219 33.8719 -18.4229 33.8719H-26.3611ZM-22.6689 30.8655H-19.0031C-18.0713 30.8655 -17.3504 30.6545 -16.8405 30.2325C-16.3307 29.793 -16.0757 29.1776 -16.0757 28.3865C-16.0757 27.5953 -16.3395 26.9711 -16.8669 26.514C-17.3944 26.0569 -18.124 25.8283 -19.0558 25.8283H-22.6689V30.8655ZM-22.6689 23.0856H-19.2932C-18.3965 23.0856 -17.7108 22.8834 -17.2361 22.479C-16.7614 22.057 -16.5241 21.468 -16.5241 20.712C-16.5241 19.9736 -16.7614 19.4022 -17.2361 18.9978C-17.7108 18.5758 -18.4053 18.3649 -19.3196 18.3649H-22.6689V23.0856ZM-3.11032 34.1884C-4.44654 34.1884 -5.6333 33.9071 -6.67062 33.3445C-7.69036 32.7643 -8.49033 31.9643 -9.07053 30.9446C-9.65073 29.9073 -9.94082 28.7117 -9.94082 27.3579C-9.94082 25.9865 -9.65952 24.7734 -9.0969 23.7185C-8.5167 22.646 -7.71674 21.8021 -6.697 21.1867C-5.65967 20.5714 -4.45533 20.2637 -3.08395 20.2637C-1.76532 20.2637 -0.61372 20.5538 0.370857 21.134C1.37302 21.7142 2.14661 22.4966 2.69164 23.4811C3.25426 24.4657 3.53557 25.5997 3.53557 26.8832C3.53557 27.059 3.52678 27.2524 3.50919 27.4634C3.50919 27.6744 3.49161 27.903 3.45645 28.1491H-7.30357V25.9074H-0.20934C-0.262085 25.0987 -0.560974 24.4569 -1.10601 23.9822C-1.63346 23.4899 -2.29277 23.2438 -3.08395 23.2438C-3.68173 23.2438 -4.22676 23.3845 -4.71905 23.6658C-5.21134 23.9471 -5.59814 24.3602 -5.87945 24.9053C-6.16075 25.4503 -6.30141 26.1448 -6.30141 26.9887V27.7535C-6.30141 28.4392 -6.16954 29.0458 -5.90582 29.5732C-5.64209 30.0831 -5.27288 30.4787 -4.79817 30.76C-4.32346 31.0413 -3.76964 31.1819 -3.1367 31.1819C-2.50375 31.1819 -1.98509 31.0501 -1.58071 30.7864C-1.15875 30.5226 -0.842282 30.1798 -0.631301 29.7578H3.13998C2.89383 30.5842 2.47187 31.3314 1.87409 31.9995C1.2939 32.6676 0.581838 33.2038 -0.262085 33.6082C-1.10601 33.995 -2.05542 34.1884 -3.11032 34.1884ZM10.9323 34.1884C9.84218 34.1884 8.92793 34.0126 8.1895 33.661C7.46865 33.2918 6.93241 32.8083 6.58077 32.2105C6.24672 31.5951 6.07969 30.9182 6.07969 30.1798C6.07969 29.3886 6.28188 28.6853 6.68626 28.07C7.09064 27.4546 7.7148 26.9711 8.55872 26.6195C9.40264 26.2679 10.4575 26.092 11.7234 26.092H14.9936C14.9936 25.4591 14.9057 24.9404 14.7299 24.5361C14.5717 24.1141 14.3079 23.7976 13.9387 23.5866C13.5871 23.3757 13.1124 23.2702 12.5146 23.2702C11.8641 23.2702 11.3103 23.4108 10.8531 23.6921C10.4136 23.9734 10.1411 24.3954 10.0356 24.958H6.44891C6.5544 24.0086 6.87087 23.1911 7.39832 22.5054C7.92578 21.8021 8.62904 21.2571 9.50813 20.8703C10.4048 20.4659 11.4157 20.2637 12.541 20.2637C13.7893 20.2637 14.8706 20.4747 15.7848 20.8966C16.7166 21.3186 17.4287 21.9252 17.921 22.7163C18.4309 23.5075 18.6858 24.4833 18.6858 25.6437V33.8719H15.5738L15.1519 31.8676C14.976 32.2193 14.7475 32.5357 14.4662 32.817C14.2025 33.0984 13.8948 33.3445 13.5431 33.5555C13.1915 33.7489 12.7959 33.8983 12.3564 34.0038C11.9344 34.1269 11.4597 34.1884 10.9323 34.1884ZM11.8289 31.3402C12.2685 31.3402 12.6641 31.2699 13.0157 31.1292C13.3673 30.971 13.6662 30.7512 13.9124 30.4699C14.1585 30.1886 14.3607 29.8721 14.5189 29.5205C14.6772 29.1513 14.7826 28.7557 14.8354 28.3337V28.3073H12.1718C11.6619 28.3073 11.2399 28.3777 10.9059 28.5183C10.5894 28.6414 10.3521 28.826 10.1938 29.0721C10.0356 29.3007 9.95647 29.5644 9.95647 29.8633C9.95647 30.1798 10.0356 30.4523 10.1938 30.6809C10.3521 30.9094 10.5718 31.0765 10.8531 31.1819C11.1344 31.2874 11.4597 31.3402 11.8289 31.3402ZM28.4659 34.1884C27.1297 34.1884 25.9429 33.8895 24.9056 33.2918C23.8683 32.694 23.0507 31.8764 22.453 30.8391C21.8728 29.8018 21.5827 28.615 21.5827 27.2788C21.5827 25.9074 21.8728 24.7031 22.453 23.6658C23.0507 22.6109 23.8683 21.7845 24.9056 21.1867C25.9429 20.5714 27.1385 20.2637 28.4923 20.2637C30.1977 20.2637 31.6306 20.7208 32.791 21.6351C33.969 22.5317 34.7162 23.7712 35.0327 25.3536H31.1032C30.9625 24.7558 30.646 24.2899 30.1537 23.9559C29.679 23.6042 29.1076 23.4284 28.4395 23.4284C27.8417 23.4284 27.3055 23.5866 26.8308 23.9031C26.3737 24.202 26.0132 24.6328 25.7495 25.1954C25.4858 25.758 25.3539 26.4349 25.3539 27.2261C25.3539 27.8238 25.4243 28.3601 25.5649 28.8348C25.7232 29.2919 25.9341 29.6875 26.1979 30.0216C26.4792 30.3556 26.8132 30.6105 27.2 30.7864C27.5868 30.9622 28 31.0501 28.4395 31.0501C28.8967 31.0501 29.301 30.9798 29.6527 30.8391C30.0043 30.6809 30.312 30.4611 30.5757 30.1798C30.8394 29.8809 31.0153 29.5293 31.1032 29.1249H35.0327C34.7162 30.6721 33.969 31.9028 32.791 32.817C31.613 33.7313 30.1713 34.1884 28.4659 34.1884ZM38.1012 33.8719V14.8837H41.7933V22.5317C42.2153 21.846 42.7867 21.301 43.5075 20.8966C44.246 20.4747 45.0987 20.2637 46.0657 20.2637C47.1733 20.2637 48.1052 20.501 48.8612 20.9758C49.6172 21.4329 50.1886 22.1098 50.5754 23.0064C50.9798 23.8855 51.182 24.9756 51.182 26.2766V33.8719H47.5162V26.6195C47.5162 25.5822 47.2964 24.7822 46.8569 24.2196C46.4173 23.657 45.7404 23.3757 44.8262 23.3757C44.246 23.3757 43.7185 23.5163 43.2438 23.7976C42.7867 24.0789 42.4263 24.4745 42.1625 24.9844C41.9164 25.4943 41.7933 26.1096 41.7933 26.8305V33.8719H38.1012Z" fill="#E1F857"/>
<path d="M101.768 19.8157C101.689 19.3311 101.446 19.0887 101.204 18.9736C101.277 18.495 101.174 18.0467 100.883 17.7195C100.828 17.6589 100.762 17.6044 100.695 17.5559C101.216 16.9198 101.422 16.3018 101.428 16.2715C101.459 16.1807 101.695 15.3749 101.483 14.6479C101.331 14.1147 100.798 13.6119 100.168 13.6846C99.8652 13.7209 99.5926 13.9027 99.3442 14.2298C98.7565 14.9992 98.0476 15.7202 97.363 16.4109C97.1389 16.2352 96.8905 16.0958 96.6118 16.005C96.0362 15.8171 95.4546 15.8838 95.0426 16.1807C94.5216 16.5563 94.3338 17.2167 94.3217 17.7013C94.3156 18.1012 94.4186 18.5435 94.6125 18.9433L93.7522 19.8339L93.6492 19.634C92.8616 18.077 92.1224 16.6047 91.765 14.9811C91.7044 14.6903 91.6499 14.3934 91.6014 14.0965C91.4075 12.9575 91.2016 11.7883 90.4079 10.8734C89.5112 9.84954 88.1723 9.54056 87.209 9.45574C86.3729 9.38304 85.5429 9.4618 84.8098 9.69202C83.5921 10.0798 82.6409 10.9522 82.2047 12.073C81.9078 12.8243 81.7624 13.6119 81.617 14.3752C81.5262 14.866 81.4353 15.3325 81.3141 15.7869C81.0051 16.9258 80.5023 17.9861 80.0055 18.9676C79.8782 19.222 79.745 19.4825 79.6117 19.737C79.4723 20.0036 79.333 20.2762 79.1997 20.5367C79.0664 20.7912 78.9331 21.0517 78.7998 21.3243C78.7998 21.3243 78.7998 21.3304 78.7998 21.3364C78.7393 21.3001 78.6726 21.2698 78.606 21.2334C78.2122 21.0214 78.0849 20.9547 78.0001 20.9184C77.5336 20.7185 77.0126 20.6094 76.4976 20.6094C76.3401 20.6094 76.1765 20.6215 76.025 20.6397C75.0012 20.7669 74.0863 21.3001 73.5108 22.0998C73.2321 22.4875 73.0564 22.8692 72.9594 23.1479C72.5838 23.3478 72.2506 23.7053 72.0386 24.1354C72.0022 24.2081 71.9659 24.299 71.9295 24.3899C71.3176 24.5777 70.7784 24.9897 70.4573 25.6016L70.427 25.6561L69.5667 25.2078L69.3668 25.6016L67.2584 24.499L66.0225 26.8436C65.7741 27.3161 65.7499 27.8614 65.9256 28.3279C66.077 28.7399 66.3799 29.1095 66.8101 29.3397L75.9402 34.1259C76.2916 34.3137 76.6733 34.3743 77.0368 34.3198C77.6124 34.2531 78.1455 33.9017 78.4363 33.3443L79.6723 30.9997L77.6366 29.9274L77.8365 29.5457L77.1035 29.1519L77.1338 29.0973C77.4367 28.5218 77.4791 27.8796 77.3155 27.2919C77.3155 27.2616 77.2065 26.9587 77.1338 26.8375C77.055 26.68 76.9641 26.5285 76.849 26.3892C76.849 26.3831 76.849 26.3771 76.849 26.371C77.1822 25.8621 77.0247 25.2684 76.9581 24.9957C76.8854 24.6686 76.6915 24.3717 76.4249 24.1415C76.5158 24.1294 76.6127 24.1173 76.7218 24.1173H76.8248C77.1459 24.1173 77.4124 24.1597 77.6306 24.2445C77.9092 24.3535 78.1213 24.5353 78.2001 24.7171C78.2001 24.7171 78.5696 23.9476 78.5514 23.8143C78.3697 23.6629 78.1576 23.5417 77.9456 23.4508C77.5881 23.3115 77.2065 23.263 76.8248 23.263C76.7824 23.263 76.7339 23.263 76.6915 23.263C76.3159 23.2751 75.9342 23.3418 75.607 23.5175C75.4253 23.6144 75.2617 23.7416 75.1344 23.9052C75.0375 24.0203 74.7467 24.402 74.983 24.505C75.0375 24.5292 75.0921 24.5292 75.1526 24.5353C75.3344 24.5474 75.5222 24.5838 75.6858 24.6686C75.8978 24.7776 76.0735 24.9594 76.128 25.1957C76.1523 25.2926 76.1462 25.4623 76.1341 25.6198C76.122 25.6077 76.1099 25.5955 76.1038 25.5895C75.9826 25.4744 75.7948 25.4804 75.6737 25.6016C75.5585 25.7228 75.5767 26.0742 75.6979 26.1893C75.7706 26.2559 75.8797 26.371 76.0008 26.5043C75.9039 26.8496 75.7645 27.1526 75.7585 27.1768C75.6858 27.3222 75.601 27.4131 75.4919 27.4434C75.4616 27.4555 75.4253 27.4555 75.3889 27.4555C75.2193 27.4555 75.0315 27.3464 74.9163 27.2737C74.88 27.2556 74.8558 27.2374 74.8255 27.2253C74.7346 27.1707 74.3044 26.5891 74.153 26.5891H74.1409C74.0318 26.6194 73.9167 26.6558 73.7834 26.6558C73.632 26.6558 73.4684 26.6073 73.2927 26.4558C73.0867 26.2801 72.9231 26.2256 72.8019 26.1893C72.6929 26.1529 72.6565 26.1408 72.6262 26.0802C72.5838 25.9833 72.5717 25.7894 72.5778 25.4562C72.5778 25.2987 72.5959 25.1533 72.6262 25.02C72.6626 24.8261 72.7171 24.6565 72.7898 24.5171C73.0079 24.0688 73.3533 23.8628 73.5532 23.8325C73.6017 23.8265 73.6441 23.784 73.6562 23.7356C73.6804 23.6205 73.8319 23.1055 74.1893 22.6087C74.6437 21.9786 75.3526 21.5909 76.122 21.4939C76.2431 21.4758 76.3643 21.4697 76.4855 21.4697C76.8854 21.4697 77.2913 21.5545 77.6608 21.712C77.7517 21.7484 78.4909 22.1604 78.7271 22.2755C78.7271 22.2694 78.7271 22.2634 78.7332 22.2573L79.133 22.5784C79.2906 22.3785 79.3875 22.1361 79.4784 21.918C79.5087 21.8393 79.539 21.7666 79.5693 21.706C79.6965 21.4515 79.8237 21.1971 79.957 20.9426C80.0903 20.6761 80.2296 20.4095 80.369 20.1429C80.5023 19.8824 80.6356 19.6279 80.7688 19.3674C81.2596 18.3981 81.8109 17.2469 82.1381 16.0292C82.2714 15.5385 82.3683 15.0356 82.4592 14.5509C82.6046 13.7936 82.7379 13.0787 83.0044 12.4002C83.3498 11.5035 84.0889 10.8371 85.0704 10.522C85.6944 10.3282 86.4093 10.2555 87.1363 10.3221C87.9421 10.3887 89.0569 10.6432 89.7657 11.449C90.4018 12.1821 90.5775 13.1878 90.7593 14.2541C90.8138 14.563 90.8623 14.872 90.9289 15.1749C91.3045 16.9016 92.1103 18.495 92.8798 20.0278L93.2493 20.7669C93.4674 21.1971 93.6734 21.6333 93.8673 22.0756C94.1278 22.6693 94.358 23.2691 94.558 23.8507C95.1456 25.6319 96.1938 30.1091 93.2857 33.2474C93.1706 33.3686 93.0555 33.4897 92.9282 33.6049C92.28 34.2046 91.6014 34.5863 90.8986 34.7499L90.832 34.7681C90.3897 34.865 89.9535 34.8468 89.5112 34.7196L89.4567 34.6651H89.3477C89.0266 34.55 88.6994 34.3743 88.3722 34.1198C89.7778 32.8536 90.8744 31.2481 91.5408 29.4487C92.5223 26.8133 92.6859 23.1419 89.9293 21.4637C88.9539 20.8699 87.4392 20.567 86.2457 21.2455C85.3248 21.7787 84.5918 22.742 84.2343 23.8931C83.4103 26.5225 83.9677 29.6305 85.761 32.4174C86.1912 33.0838 86.6153 33.6351 87.0576 34.0835C86.4093 34.5379 85.761 34.8044 85.1188 34.8832C84.7371 34.9317 84.3555 34.9074 83.9677 34.8165C83.9193 34.8044 83.8647 34.7923 83.8102 34.7741C82.7863 34.4894 81.8594 33.7745 81.4474 32.9566L80.684 33.3383C81.1748 34.3137 82.2229 35.1498 83.3861 35.5315C83.3316 35.7314 83.2649 35.9071 83.168 36.0404C83.0287 36.2403 82.8227 36.3736 82.6227 36.4039C82.1926 36.4645 81.7443 36.1373 81.2959 35.7738C81.2111 35.7071 81.1324 35.6405 81.0536 35.5799C80.9627 35.5072 80.8718 35.4406 80.7749 35.3739C80.6659 35.3012 80.5507 35.2285 80.4235 35.174C79.8964 34.9377 79.0543 34.9135 78.0122 36.1373C77.473 36.7674 76.5461 38.0397 76.3825 39.4876C76.328 39.9723 76.4007 40.3601 76.6006 40.663C76.8551 41.0447 77.3216 41.2688 77.8184 41.2688C77.9819 41.2688 78.1455 41.2446 78.3091 41.1961C78.8362 41.0326 79.23 40.669 79.5147 40.3661C79.9449 39.9057 80.472 39.0211 80.7446 38.5304C80.8718 38.5849 80.9991 38.6334 81.0233 38.6455C81.1748 38.7061 81.3444 38.7606 81.5201 38.8151C82.4895 39.0938 83.4043 38.9606 84.0949 38.4456C84.7917 37.9367 85.2642 37.0764 85.5066 35.9071C85.5248 35.8283 85.5308 35.7496 85.5429 35.6769C86.27 35.5315 86.9909 35.2043 87.6937 34.6833C88.1481 35.0468 88.5903 35.3073 89.0508 35.4709L89.1114 35.5315L89.4809 35.8768C89.6506 36.0464 89.8142 36.2342 89.9838 36.4402C90.1534 36.6462 90.3231 36.8643 90.4867 37.1006C90.6563 37.3429 90.8259 37.5974 90.9956 37.87C91.2137 38.2154 91.4257 38.5789 91.6559 38.9606C91.7892 39.1908 91.9286 39.421 92.074 39.6573C92.2739 39.9784 92.4738 40.3055 92.6919 40.6327C92.7525 40.7236 92.8131 40.8144 92.8858 40.8993C92.9706 41.0144 93.0615 41.1053 93.1706 41.2022C93.2251 41.2507 93.2857 41.2931 93.3463 41.3294L93.7037 41.4869C93.7461 41.4991 93.7885 41.5051 93.8309 41.5172C93.8673 41.5172 93.9036 41.5294 93.94 41.5294H94.0733H94.0854C94.2308 41.5294 94.3822 41.4991 94.5216 41.4506C94.6549 41.4142 94.7761 41.3597 94.9093 41.2931C94.9396 41.281 94.9699 41.2628 94.9699 41.2628C95.0002 41.2446 95.0366 41.2264 95.0669 41.2083L95.497 40.9174C95.8181 40.6751 96.1392 40.3904 96.5027 40.0026C96.6542 39.8451 96.7996 39.6755 96.9389 39.5179C97.0783 39.3544 97.2237 39.1908 97.357 39.0211C97.4963 38.8515 97.6296 38.6819 97.7508 38.5062C97.878 38.3244 97.9992 38.1427 98.1082 37.9548C98.3384 37.555 98.5141 37.1491 98.6232 36.7371C98.6838 36.519 98.7201 36.3009 98.7444 36.0525L98.7565 35.7496C98.7565 35.6344 98.7504 35.5193 98.7383 35.4042C98.6838 34.962 98.5081 34.5984 98.2233 34.3198C97.9265 34.035 97.5508 33.8654 97.157 33.8411C97.0843 33.8411 97.0116 33.8411 96.9511 33.8411C96.4543 33.8775 95.9696 34.1319 95.4667 34.6287C94.7155 35.3679 94.1702 36.2948 93.7098 37.1733C93.1342 36.5069 92.4981 35.895 91.8135 35.3376C92.3951 35.0952 92.9525 34.7317 93.4856 34.241C93.631 34.1138 93.7643 33.9744 93.8915 33.8351C96.1574 31.3935 96.6845 27.6615 95.3456 23.5962C95.2668 23.3539 95.1759 23.1116 95.079 22.8692L96.7027 21.4455C96.9753 21.6575 97.4054 21.8938 97.987 21.8756C98.4838 21.8635 98.8958 21.7363 99.1806 21.6151C99.3502 21.7181 99.5441 21.7787 99.7622 21.7848C99.7864 21.7848 99.8046 21.7848 99.8288 21.7848C99.8955 21.7848 99.9561 21.7848 100.023 21.7726C100.592 21.7181 101.125 21.4394 101.446 21.0214C101.707 20.676 101.81 20.2701 101.743 19.846L101.768 19.8157ZM72.7474 27.092C73.0625 27.3586 73.4138 27.4979 73.7955 27.4979C73.8379 27.4979 73.8864 27.4979 73.9288 27.4979C73.953 27.5221 73.9712 27.5464 73.9894 27.5706C74.153 27.7524 74.256 27.8735 74.4195 27.9644L74.468 27.9947H74.4801C74.4801 27.9947 74.4862 28.0008 74.4922 28.0068C74.7043 28.1401 75.0193 28.3097 75.401 28.3097C75.5222 28.3097 75.6434 28.2916 75.7585 28.2552C75.9705 28.1946 76.3037 28.0189 76.534 27.5524C76.5643 27.4918 76.6127 27.3646 76.6612 27.2192C76.6915 27.2798 76.7521 27.4131 76.7642 27.4252C76.8975 27.8856 76.8732 28.3885 76.637 28.8489L76.6006 28.9035L75.8675 28.5218L75.6615 28.9035L71.3479 26.6376L71.5539 26.2559L70.9299 25.9288L70.9602 25.8742C71.154 25.5168 71.4448 25.2502 71.7781 25.0745C71.7599 25.2017 71.7538 25.3229 71.7478 25.4198C71.7417 25.8682 71.7538 26.165 71.8689 26.4195V26.4377L71.8871 26.4558C72.0749 26.8315 72.396 26.9405 72.5535 26.989H72.5657L72.5838 27.0011C72.6444 27.0193 72.6868 27.0314 72.7656 27.098L72.7474 27.092ZM83.6042 37.7246C82.9923 38.1729 82.2653 38.1003 81.7624 37.9609C81.611 37.9185 81.4656 37.87 81.3383 37.8216C81.2838 37.7973 80.7264 37.5671 80.7264 37.5671L80.369 37.4156L80.1872 37.761C79.9812 38.1548 79.339 39.2877 78.9028 39.7482C78.6908 39.9723 78.4 40.2449 78.0668 40.3479C77.8123 40.4267 77.4609 40.3782 77.3216 40.1601C77.2367 40.0329 77.2125 39.8269 77.2428 39.5543C77.3458 38.6576 77.8668 37.6035 78.6726 36.6583C79.0604 36.2039 79.6117 35.7071 80.0842 35.9253C80.163 35.9616 80.2296 36.004 80.2963 36.0525C80.375 36.107 80.4478 36.1615 80.5265 36.2282C80.6053 36.2888 80.684 36.3493 80.7628 36.416C81.2232 36.7856 81.926 37.3369 82.7439 37.2278C83.1741 37.1672 83.586 36.9067 83.8647 36.519C84.0283 36.2948 84.1495 36.0222 84.2282 35.7071C84.3736 35.7253 84.5251 35.7314 84.6705 35.7374C84.4706 36.6826 84.1071 37.3551 83.5981 37.7307L83.6042 37.7246ZM87.7361 33.52C87.3181 33.0959 86.9 32.5628 86.4881 31.9267C84.8341 29.3518 84.3131 26.5043 85.0582 24.1173C85.3551 23.1661 85.9489 22.3785 86.6759 21.9544C87.0151 21.7605 87.4029 21.6818 87.7967 21.6818C88.4147 21.6818 89.0387 21.8877 89.4931 22.1604C91.8074 23.5659 91.6135 26.783 90.7532 29.1155C90.1232 30.818 89.0811 32.3386 87.7422 33.52H87.7361ZM93.4856 38.1669L93.8976 38.6879L94.2005 38.0942C94.7276 37.0642 95.2729 35.998 96.0908 35.1922C96.4422 34.8468 96.7572 34.6711 97.048 34.6469C97.0783 34.6469 97.1086 34.6469 97.1328 34.6469C97.3206 34.659 97.5145 34.7499 97.6599 34.8893C97.7992 35.0286 97.8841 35.2164 97.9144 35.4648C97.9265 35.5436 97.9265 35.6223 97.9265 35.7374L97.9144 35.9555C97.8962 36.1252 97.8659 36.2948 97.8235 36.4645C97.7326 36.8037 97.5872 37.143 97.3933 37.4762C97.2964 37.6398 97.1934 37.8034 97.0783 37.9609C96.9632 38.1245 96.842 38.282 96.7148 38.4335C96.5815 38.591 96.4482 38.7485 96.3149 38.906C96.1816 39.0635 96.0423 39.215 95.8969 39.3665C95.5697 39.7118 95.285 39.9723 95.0184 40.1723L94.667 40.4085L94.8669 40.7842L94.6004 40.4449L94.5277 40.4812C94.455 40.5176 94.3823 40.5539 94.2974 40.5782C94.2247 40.6024 94.146 40.6145 94.049 40.6206L93.9461 40.6024L93.837 41.0144L93.8855 40.5842L93.6734 40.9538L93.8249 40.5479C93.7946 40.5297 93.7643 40.5055 93.7401 40.4873C93.6795 40.4328 93.6249 40.3782 93.5825 40.3177C93.528 40.245 93.4735 40.1722 93.425 40.0935C93.213 39.7784 93.013 39.4573 92.8252 39.1484C92.6859 38.9121 92.5465 38.6819 92.4133 38.4577C92.183 38.07 91.9649 37.7004 91.7408 37.349C91.559 37.0642 91.3833 36.7977 91.2076 36.5432C91.0259 36.2888 90.8441 36.0464 90.6623 35.8283C90.5957 35.7496 90.5351 35.689 90.4685 35.6163C90.5897 35.6163 90.7048 35.5981 90.8259 35.5799C91.8256 36.3191 92.7222 37.1794 93.4917 38.1548L93.4856 38.1669ZM98.7504 20.8336C98.5566 20.9063 98.296 20.9729 97.9992 20.979C97.4176 20.979 97.1025 20.5791 97.0904 20.567L96.8117 20.1914L94.77 21.9847C94.7276 21.8938 94.6973 21.7969 94.6549 21.706C94.4913 21.3425 94.3217 20.9911 94.146 20.6336L95.6727 19.0524L95.491 18.7676C95.285 18.4465 95.1638 18.0346 95.1699 17.7013C95.1699 17.4105 95.291 17.0349 95.5394 16.8531C95.7636 16.6896 96.1029 16.7199 96.3391 16.7986C96.9874 17.0107 97.4357 17.5983 97.4842 18.289C97.5024 18.5071 97.4357 18.7616 97.3206 18.7858C97.26 18.7979 97.1692 18.7858 97.0722 18.7495C96.5451 18.5616 96.3937 18.0648 96.3513 17.7862L95.5091 17.9194C95.6303 18.707 96.0968 19.3068 96.7875 19.5552C97.0359 19.6461 97.2722 19.6643 97.4903 19.6279C97.7023 19.5855 97.8659 19.4825 97.9992 19.3432C97.9568 19.4946 97.9447 19.6461 97.981 19.7915C98.0658 20.1611 98.3566 20.4277 98.7686 20.5609C98.7565 20.6458 98.7504 20.7427 98.7565 20.8396L98.7504 20.8336ZM99.1564 19.7794C99.0109 19.7612 98.8352 19.7006 98.811 19.5916C98.805 19.5613 98.8413 19.4765 98.914 19.4159C99.0715 19.2826 99.0958 19.2705 99.2775 19.2341L99.1018 18.3981C98.7686 18.4708 98.6171 18.5495 98.3748 18.7495C98.3324 18.7858 98.3021 18.8282 98.2658 18.8646C98.3324 18.6586 98.3506 18.4344 98.3385 18.2224C98.3082 17.7862 98.1628 17.3742 97.9386 17.0228C98.6535 16.3018 99.3926 15.5506 100.023 14.7266C100.162 14.5449 100.247 14.5146 100.277 14.5146C100.41 14.5025 100.61 14.6782 100.665 14.866C100.786 15.2779 100.665 15.8232 100.616 15.9989C100.616 16.005 100.404 16.629 99.8531 17.2045C99.8531 17.2045 99.738 17.3197 99.3502 17.5317L99.7622 18.2829C99.847 18.2345 99.9076 18.1981 99.9742 18.1557C100.059 18.1618 100.18 18.1921 100.253 18.2708C100.392 18.4284 100.429 18.6949 100.344 18.9857C100.295 19.1614 100.204 19.325 100.089 19.4462C99.8955 19.6461 99.6107 19.7733 99.326 19.7794C99.2775 19.7794 99.2169 19.7794 99.1624 19.7673L99.1564 19.7794ZM100.798 20.464C100.622 20.6882 100.307 20.8517 99.9682 20.882C99.9197 20.882 99.8712 20.8881 99.8228 20.882C99.7319 20.882 99.6471 20.8517 99.6107 20.8093C99.5865 20.779 99.5986 20.6942 99.6107 20.6094C100.029 20.5367 100.41 20.3428 100.701 20.0399C100.768 19.9672 100.822 19.8824 100.877 19.7976C100.895 19.8279 100.907 19.8703 100.919 19.943C100.95 20.1368 100.907 20.3065 100.786 20.464H100.798Z" fill="#E1F857"/>
<path d="M87.511 15.2707C87.7473 15.2707 87.9351 15.0768 87.9351 14.8466V13.7318C87.9351 13.4956 87.7412 13.3077 87.511 13.3077C87.2808 13.3077 87.0869 13.5016 87.0869 13.7318V14.8466C87.0869 15.0829 87.2808 15.2707 87.511 15.2707Z" fill="#E1F857"/>
<path d="M89.4442 14.8431V13.7284C89.4442 13.4921 89.2503 13.3043 89.0201 13.3043C88.7899 13.3043 88.596 13.4981 88.596 13.7284V14.8431C88.596 15.0794 88.7899 15.2672 89.0201 15.2672C89.2503 15.2672 89.4442 15.0733 89.4442 14.8431Z" fill="#E1F857"/>
<path d="M85.845 15.4935C85.845 16.7234 86.8446 17.7231 88.0745 17.7231C89.3044 17.7231 90.304 16.7234 90.304 15.4935H89.4498C89.4498 16.2508 88.8318 16.8688 88.0745 16.8688C87.3172 16.8688 86.6992 16.2508 86.6992 15.4935H85.845Z" fill="#E1F857"/>
<path d="M75.6067 34.7853L72.4927 33.1495L72.426 33.2889C72.0141 34.0644 71.0629 34.3612 70.2934 33.9553L70.0148 33.8039C69.2453 33.404 68.9424 32.4528 69.3423 31.6834L69.415 31.5501L66.4645 29.9991C66.0404 29.775 65.7375 29.4115 65.5799 28.9874L63.4898 32.986C63.199 33.5312 63.4231 34.2037 63.9623 34.4824L73.1712 39.3171C73.7104 39.5958 74.395 39.4019 74.6737 38.8506L76.7033 34.9792C76.3459 35.0277 75.9642 34.961 75.6128 34.7732L75.6067 34.7853Z" fill="#E1F857"/>
<path d="M70.5236 33.3863C71.0265 33.6468 71.6263 33.4529 71.8868 32.9683L71.9413 32.8531L69.9178 31.7929L69.8632 31.908C69.6027 32.3927 69.8026 33.0046 70.2873 33.2591L70.5236 33.3863Z" fill="#E1F857"/>
<path d="M118.012 33.8719L113.186 15.4111H117.142L120.254 29.7051L123.999 15.4111H128.06L131.673 29.7051L134.838 15.4111H138.82L133.862 33.8719H129.458L125.976 20.6065L122.39 33.8719H118.012ZM146.118 34.1884C144.852 34.1884 143.709 33.8983 142.689 33.3181C141.67 32.7203 140.861 31.894 140.263 30.8391C139.683 29.7842 139.393 28.5886 139.393 27.2524C139.393 25.8811 139.683 24.6679 140.263 23.613C140.861 22.5581 141.67 21.7406 142.689 21.1604C143.709 20.5626 144.861 20.2637 146.144 20.2637C147.428 20.2637 148.579 20.5626 149.599 21.1604C150.619 21.7406 151.419 22.5581 151.999 23.613C152.597 24.6503 152.896 25.8547 152.896 27.2261C152.896 28.5974 152.597 29.8106 151.999 30.8655C151.401 31.9028 150.592 32.7203 149.573 33.3181C148.571 33.8983 147.419 34.1884 146.118 34.1884ZM146.118 30.9973C146.698 30.9973 147.208 30.8567 147.648 30.5754C148.087 30.2941 148.439 29.8721 148.702 29.3095C148.984 28.7469 149.124 28.0524 149.124 27.2261C149.124 26.3997 148.993 25.7052 148.729 25.1426C148.465 24.58 148.105 24.158 147.648 23.8767C147.208 23.5954 146.707 23.4548 146.144 23.4548C145.599 23.4548 145.098 23.5954 144.641 23.8767C144.184 24.158 143.823 24.58 143.56 25.1426C143.296 25.7052 143.164 26.3997 143.164 27.2261C143.164 28.0524 143.296 28.7469 143.56 29.3095C143.823 29.8721 144.175 30.2941 144.615 30.5754C145.072 30.8567 145.573 30.9973 146.118 30.9973ZM155.963 33.8719V20.5802H159.233L159.576 23.0328C159.91 22.4526 160.314 21.9603 160.789 21.556C161.264 21.1516 161.818 20.8351 162.451 20.6065C163.084 20.378 163.769 20.2637 164.508 20.2637V24.1668H163.268C162.741 24.1668 162.248 24.2284 161.791 24.3514C161.352 24.4745 160.965 24.6767 160.631 24.958C160.314 25.2217 160.068 25.591 159.892 26.0657C159.734 26.5228 159.655 27.103 159.655 27.8063V33.8719H155.963ZM175.613 33.8719L169.995 26.5931L175.006 20.5802H179.384L172.791 28.1491V25.2217L180.202 33.8719H175.613ZM166.857 33.8719V14.8837H170.549V33.8719H166.857ZM186.252 34.1884C185.162 34.1884 184.248 34.0126 183.509 33.661C182.789 33.2918 182.252 32.8083 181.901 32.2105C181.567 31.5951 181.4 30.9182 181.4 30.1798C181.4 29.3886 181.602 28.6853 182.006 28.07C182.411 27.4546 183.035 26.9711 183.879 26.6195C184.723 26.2679 185.778 26.092 187.043 26.092H190.314C190.314 25.4591 190.226 24.9404 190.05 24.5361C189.892 24.1141 189.628 23.7976 189.259 23.5866C188.907 23.3757 188.432 23.2702 187.835 23.2702C187.184 23.2702 186.63 23.4108 186.173 23.6921C185.734 23.9734 185.461 24.3954 185.356 24.958H181.769C181.874 24.0086 182.191 23.1911 182.718 22.5054C183.246 21.8021 183.949 21.2571 184.828 20.8703C185.725 20.4659 186.736 20.2637 187.861 20.2637C189.109 20.2637 190.191 20.4747 191.105 20.8966C192.037 21.3186 192.749 21.9252 193.241 22.7163C193.751 23.5075 194.006 24.4833 194.006 25.6437V33.8719H190.894L190.472 31.8676C190.296 32.2193 190.067 32.5357 189.786 32.817C189.522 33.0984 189.215 33.3445 188.863 33.5555C188.511 33.7489 188.116 33.8983 187.676 34.0038C187.254 34.1269 186.78 34.1884 186.252 34.1884ZM187.149 31.3402C187.588 31.3402 187.984 31.2699 188.336 31.1292C188.687 30.971 188.986 30.7512 189.232 30.4699C189.478 30.1886 189.681 29.8721 189.839 29.5205C189.997 29.1513 190.103 28.7557 190.155 28.3337V28.3073H187.492C186.982 28.3073 186.56 28.3777 186.226 28.5183C185.909 28.6414 185.672 28.826 185.514 29.0721C185.356 29.3007 185.276 29.5644 185.276 29.8633C185.276 30.1798 185.356 30.4523 185.514 30.6809C185.672 30.9094 185.892 31.0765 186.173 31.1819C186.454 31.2874 186.78 31.3402 187.149 31.3402ZM203.262 33.8719C202.312 33.8719 201.477 33.7225 200.756 33.4236C200.053 33.1247 199.508 32.6324 199.121 31.9467C198.734 31.2611 198.541 30.3292 198.541 29.1513V23.6658H196.246V20.5802H198.541L198.936 16.9144H202.233V20.5802H205.688V23.6658H202.233V29.1776C202.233 29.7578 202.356 30.1622 202.602 30.3908C202.866 30.6193 203.305 30.7336 203.921 30.7336H205.661V33.8719H203.262ZM208.787 33.8719V20.5802H212.479V33.8719H208.787ZM210.633 18.8659C209.965 18.8659 209.42 18.6725 208.998 18.2858C208.576 17.8814 208.365 17.3891 208.365 16.8089C208.365 16.2111 208.576 15.7188 208.998 15.332C209.42 14.9452 209.965 14.7518 210.633 14.7518C211.301 14.7518 211.846 14.9452 212.268 15.332C212.69 15.7188 212.901 16.2111 212.901 16.8089C212.901 17.3891 212.69 17.8814 212.268 18.2858C211.846 18.6725 211.301 18.8659 210.633 18.8659ZM222.325 34.1884C221.06 34.1884 219.917 33.8983 218.897 33.3181C217.877 32.7203 217.068 31.894 216.471 30.8391C215.89 29.7842 215.6 28.5886 215.6 27.2524C215.6 25.8811 215.89 24.6679 216.471 23.613C217.068 22.5581 217.877 21.7406 218.897 21.1604C219.917 20.5626 221.068 20.2637 222.352 20.2637C223.635 20.2637 224.787 20.5626 225.807 21.1604C226.826 21.7406 227.626 22.5581 228.206 23.613C228.804 24.6503 229.103 25.8547 229.103 27.2261C229.103 28.5974 228.804 29.8106 228.206 30.8655C227.609 31.9028 226.8 32.7203 225.78 33.3181C224.778 33.8983 223.626 34.1884 222.325 34.1884ZM222.325 30.9973C222.906 30.9973 223.415 30.8567 223.855 30.5754C224.295 30.2941 224.646 29.8721 224.91 29.3095C225.191 28.7469 225.332 28.0524 225.332 27.2261C225.332 26.3997 225.2 25.7052 224.936 25.1426C224.673 24.58 224.312 24.158 223.855 23.8767C223.415 23.5954 222.914 23.4548 222.352 23.4548C221.807 23.4548 221.306 23.5954 220.849 23.8767C220.391 24.158 220.031 24.58 219.767 25.1426C219.504 25.7052 219.372 26.3997 219.372 27.2261C219.372 28.0524 219.504 28.7469 219.767 29.3095C220.031 29.8721 220.383 30.2941 220.822 30.5754C221.279 30.8567 221.78 30.9973 222.325 30.9973ZM232.17 33.8719V20.5802H235.414L235.678 22.7427C236.082 22.0043 236.654 21.4065 237.392 20.9494C238.148 20.4923 239.054 20.2637 240.109 20.2637C241.199 20.2637 242.122 20.501 242.878 20.9758C243.634 21.4329 244.205 22.101 244.592 22.9801C244.996 23.8592 245.198 24.9404 245.198 26.2239V33.8719H241.533V26.5667C241.533 25.547 241.313 24.7646 240.873 24.2196C240.451 23.657 239.775 23.3757 238.843 23.3757C238.28 23.3757 237.77 23.5163 237.313 23.7976C236.856 24.0613 236.496 24.4481 236.232 24.958C235.986 25.4503 235.863 26.0569 235.863 26.7777V33.8719H232.17Z" fill="#E1F857"/>
</g>
<defs>
<clipPath id="clip0_5_323">
<rect width="1494.72" height="48" fill="white" transform="translate(-80.5068 0.871948)"/>
</clipPath>
</defs>
</svg>
