<svg width="130" height="23" viewBox="0 0 130 23" fill="none" xmlns="http://www.w3.org/2000/svg">
<g clip-path="url(#clip0_5_78)">
<path d="M18.6486 11.5046C17.9416 7.61551 15.7326 3.94937 12.7351 1.70377C11.0817 0.462867 9.31518 -0.119325 7.63015 0.0204015C5.70725 0.181752 3.87917 1.28459 2.33387 3.21414L1.58034 4.15563L3.46165 5.66434L4.21518 4.72285C4.99698 3.74809 6.25618 2.5571 7.82976 2.42735C9.20706 2.31257 10.4712 3.01952 11.288 3.63332C13.8114 5.52794 15.6777 8.63019 16.2765 11.9354C16.6292 13.8666 16.3131 15.718 15.4099 17.0104C14.6597 18.0883 13.4471 18.8701 12.0864 19.1512C11.9251 19.1862 11.7571 19.2128 11.5907 19.2327C12.1862 18.7936 12.6786 18.3012 13.0761 17.744C14.2888 16.059 14.6081 13.815 13.9145 11.8905C13.2109 9.9343 11.5026 8.40397 9.4599 7.89663C7.39727 7.38264 4.91381 8.24594 3.55647 9.94927C1.94962 11.962 1.82985 15.0559 3.27036 17.4762C3.66293 18.1332 4.17359 18.7603 4.77242 19.3076C3.70451 19.4606 2.86616 19.3641 2.1642 19.0115L1.08631 18.4659L0.00177002 20.6184L1.07633 21.164C1.91469 21.5848 2.82124 21.7894 3.84923 21.7894C4.99864 21.7894 6.51567 21.5249 7.93289 21.0758C9.5597 21.7079 10.9952 21.8426 12.5771 21.5116C14.5333 21.1074 16.2882 19.9663 17.3877 18.3894C18.6519 16.573 19.1143 14.0645 18.6486 11.5046ZM8.20569 10.1555C8.43857 10.1555 8.66645 10.1805 8.87937 10.2337C10.1319 10.5448 11.2165 11.5145 11.6456 12.7039C12.0698 13.8749 11.8602 15.3021 11.1183 16.3368C10.423 17.3032 9.47653 17.9685 8.05598 18.4859C6.78514 17.8255 5.79708 17.0121 5.33964 16.2403C4.41811 14.6883 4.45804 12.6756 5.43612 11.4513C6.05657 10.6762 7.16772 10.1555 8.20569 10.1555Z" fill="#214D56"/>
<path d="M24.2274 18.5215L29.5852 3.98669H32.7623L38.1201 18.5215H35.7731L31.3916 6.29218H30.9758L26.5744 18.5215H24.2274ZM27.4244 15.0334V13.0606H35.0029V15.0334H27.4244Z" fill="#214D56"/>
<path d="M41.1511 18.5206L37.4766 8.07611H39.6157L42.4402 16.2152H42.856L45.7005 8.07611H47.8396L44.1651 18.5206H41.1544H41.1511Z" fill="#214D56"/>
<path d="M53.4022 18.7278C52.4325 18.7278 51.5542 18.4966 50.7657 18.0325C49.9773 17.5684 49.3568 16.9247 48.9077 16.1013C48.4569 15.2779 48.2324 14.3397 48.2324 13.2885C48.2324 12.2372 48.4569 11.319 48.9077 10.4956C49.3568 9.67221 49.9773 9.02847 50.7657 8.56438C51.5542 8.10029 52.4341 7.86908 53.4022 7.86908C54.3703 7.86908 55.2303 8.10029 56.0188 8.56438C56.8072 9.02847 57.4277 9.67221 57.8768 10.4956C58.3259 11.319 58.5521 12.2505 58.5521 13.2885C58.5521 14.3264 58.3276 15.2779 57.8768 16.1013C57.426 16.9247 56.8072 17.5684 56.0188 18.0325C55.2303 18.4966 54.357 18.7278 53.4022 18.7278ZM53.4022 16.8382C53.9695 16.8382 54.4918 16.6934 54.9692 16.4024C55.4466 16.1113 55.8241 15.6971 56.1003 15.1565C56.3764 14.6159 56.5161 13.9937 56.5161 13.2885C56.5161 12.5832 56.3781 11.981 56.1003 11.4404C55.8225 10.8998 55.4466 10.4856 54.9692 10.1945C54.4918 9.90342 53.9695 9.75871 53.4022 9.75871C52.835 9.75871 52.3127 9.90342 51.8353 10.1945C51.3579 10.4856 50.9803 10.8998 50.7042 11.4404C50.4264 11.981 50.2883 12.5965 50.2883 13.2885C50.2883 13.9804 50.4264 14.6175 50.7042 15.1565C50.9803 15.6971 51.3579 16.1113 51.8353 16.4024C52.3127 16.6934 52.835 16.8382 53.4022 16.8382Z" fill="#214D56"/>
<path d="M65.5063 18.7285C64.3569 18.7285 63.3572 18.5206 62.5056 18.1064C61.6539 17.6906 60.9969 17.13 60.5328 16.4247C60.0687 15.7194 59.8375 14.9443 59.8375 14.0993H62.0182C62.0182 14.5833 62.1529 15.0308 62.4224 15.4383C62.6919 15.8475 63.0894 16.1686 63.6167 16.4031C64.1424 16.6393 64.7728 16.7557 65.5063 16.7557C66.6142 16.7557 67.4376 16.5445 67.9765 16.122C68.5171 15.6995 68.7866 15.1489 68.7866 14.4719C68.7866 13.9313 68.597 13.4788 68.216 13.1112C67.8351 12.7453 67.2363 12.4924 66.4196 12.3527L63.7831 11.8537C62.9796 11.7007 62.3126 11.4628 61.7787 11.1368C61.2464 10.8124 60.8405 10.3899 60.5644 9.8709C60.2866 9.35192 60.1485 8.73979 60.1485 8.03284C60.1485 7.21611 60.3564 6.4892 60.7723 5.85211C61.1881 5.21503 61.782 4.70935 62.5588 4.33675C63.3339 3.96249 64.2472 3.77618 65.3001 3.77618C66.4345 3.77618 67.4209 3.97746 68.2593 4.37834C69.096 4.78088 69.7397 5.32981 70.1905 6.02844C70.6396 6.72707 70.8658 7.52051 70.8658 8.40544H68.6851C68.6851 7.92139 68.5504 7.47394 68.2809 7.0664C68.0114 6.65887 67.6239 6.33617 67.1182 6.10163C66.6125 5.86709 66.007 5.74898 65.3017 5.74898C64.3603 5.74898 63.63 5.96356 63.111 6.39272C62.5921 6.82188 62.3326 7.36914 62.3326 8.03284C62.3326 8.54517 62.5089 8.971 62.8615 9.31034C63.2142 9.64967 63.7714 9.8892 64.5333 10.0273L66.8171 10.4431C67.7852 10.6095 68.5753 10.8656 69.1841 11.2116C69.7929 11.5576 70.2437 11.9967 70.5332 12.5307C70.8243 13.0646 70.969 13.7117 70.969 14.4719C70.969 15.2886 70.7577 16.0189 70.3352 16.6626C69.9127 17.3063 69.2906 17.812 68.4672 18.178C67.6438 18.5439 66.6574 18.7285 65.508 18.7285H65.5063Z" fill="#214D56"/>
<path d="M80.4984 22.6751V17.2557H80.3952C80.0343 17.7131 79.5918 18.0724 79.0662 18.3352C78.5405 18.598 77.9301 18.7295 77.2381 18.7295C76.3382 18.7295 75.5214 18.5016 74.7879 18.0441C74.0543 17.5867 73.4721 16.9479 73.043 16.1229C72.6138 15.2995 72.3992 14.3547 72.3992 13.2885C72.3992 12.2222 72.6138 11.299 73.043 10.4756C73.4721 9.65225 74.0527 9.01184 74.7879 8.5544C75.5214 8.09697 76.3382 7.86908 77.2381 7.86908C77.9301 7.86908 78.5455 8.00382 79.0861 8.27329C79.6267 8.54276 80.0892 8.92035 80.4767 9.4044H80.5799L80.7878 8.07534H82.5327V22.6717H80.4984V22.6751ZM77.4876 16.8398C78.0282 16.8398 78.5289 16.6918 78.993 16.394C79.4571 16.0963 79.823 15.6804 80.0941 15.1481C80.3636 14.6159 80.4984 13.9954 80.4984 13.2901C80.4984 12.5848 80.3636 11.986 80.0941 11.4521C79.8247 10.9198 79.4571 10.5039 78.993 10.2062C78.5289 9.90841 78.0282 9.76037 77.4876 9.76037C76.947 9.76037 76.4247 9.90841 75.9622 10.2062C75.4982 10.5039 75.1322 10.9198 74.8611 11.4521C74.5916 11.9843 74.4569 12.5981 74.4569 13.2901C74.4569 13.9821 74.5916 14.6159 74.8611 15.1481C75.1305 15.6821 75.4982 16.0963 75.9622 16.394C76.4263 16.6918 76.9353 16.8398 77.4876 16.8398Z" fill="#214D56"/>
<path d="M89.1369 18.7286C88.3485 18.7286 87.6382 18.5456 87.0094 18.178C86.379 17.812 85.8849 17.2947 85.5256 16.631C85.1647 15.9673 84.985 15.2055 84.985 14.3472V8.07611H87.0194V14.1808C87.0194 14.6798 87.1308 15.129 87.3521 15.5298C87.5733 15.9324 87.8777 16.2468 88.2653 16.4746C88.6529 16.7025 89.082 16.8173 89.5528 16.8173C90.0518 16.8173 90.5042 16.6959 90.9134 16.4547C91.321 16.2118 91.6437 15.8908 91.8782 15.4899C92.1127 15.089 92.2308 14.6532 92.2308 14.1808V8.07611H94.2868V18.5206H92.5219L92.314 17.4411H92.2109C91.9198 17.7871 91.5056 18.0882 90.965 18.3443C90.4244 18.6005 89.8156 18.7286 89.1369 18.7286Z" fill="#214D56"/>
<path d="M99.9962 18.7295C99.2626 18.7295 98.6156 18.5881 98.055 18.3036C97.4944 18.0192 97.0586 17.6366 96.7459 17.1509C96.4348 16.6668 96.2785 16.1129 96.2785 15.4891C96.2785 14.8105 96.4348 14.2216 96.7459 13.7243C97.0569 13.2252 97.5244 12.8343 98.1481 12.5516C98.7719 12.2688 99.5537 12.1257 100.495 12.1257H103.153V11.8563C103.153 11.1776 102.955 10.6387 102.561 10.2361C102.167 9.83523 101.63 9.63395 100.953 9.63395C100.51 9.63395 100.123 9.70382 99.7899 9.84188C99.4572 9.97994 99.1977 10.1679 99.0114 10.4024C98.8251 10.6387 98.7104 10.8865 98.6688 11.1493H96.6544C96.696 10.5821 96.8889 10.0448 97.2366 9.5408C97.5826 9.03513 98.0733 8.63092 98.7104 8.32652C99.3475 8.02211 100.094 7.86908 100.953 7.86908C101.811 7.86908 102.561 8.03209 103.205 8.35646C103.849 8.68249 104.343 9.14491 104.69 9.74706C105.036 10.3492 105.209 11.0512 105.209 11.8546V18.5199H103.444L103.237 17.3771H103.133C102.897 17.7231 102.5 18.0342 101.939 18.3119C101.378 18.5881 100.731 18.7278 99.9978 18.7278L99.9962 18.7295ZM100.204 16.9845C100.813 16.9845 101.342 16.8664 101.793 16.6319C102.242 16.3974 102.581 16.0647 102.811 15.6355C103.039 15.2064 103.153 14.709 103.153 14.1401V13.7659H100.642C99.8531 13.7659 99.2709 13.9189 98.8967 14.2233C98.5224 14.5277 98.3361 14.9219 98.3361 15.4076C98.3361 15.8933 98.4991 16.2593 98.8235 16.5504C99.1478 16.8415 99.6086 16.9862 100.204 16.9862V16.9845Z" fill="#214D56"/>
<path d="M111.853 18.7295C110.953 18.7295 110.136 18.5016 109.403 18.0441C108.669 17.5867 108.087 16.948 107.658 16.1229C107.229 15.2995 107.014 14.3547 107.014 13.2885C107.014 12.2222 107.229 11.299 107.658 10.4756C108.087 9.65226 108.668 9.01184 109.403 8.55441C110.136 8.09697 110.953 7.86908 111.853 7.86908C112.532 7.86908 113.137 8.00382 113.669 8.27329C114.202 8.54276 114.649 8.90705 115.009 9.36282H115.112V3.98669H117.146V18.5215H115.401L115.193 17.1925H115.09C114.702 17.6765 114.242 18.0541 113.709 18.3236C113.175 18.5931 112.557 18.7278 111.851 18.7278L111.853 18.7295ZM112.103 16.8398C112.643 16.8398 113.144 16.6918 113.608 16.394C114.072 16.0963 114.438 15.6804 114.709 15.1481C114.979 14.6159 115.113 13.9954 115.113 13.2901C115.113 12.5848 114.979 11.986 114.709 11.4521C114.44 10.9198 114.072 10.5039 113.608 10.2062C113.144 9.90842 112.643 9.76038 112.103 9.76038C111.562 9.76038 111.04 9.90842 110.577 10.2062C110.113 10.5039 109.747 10.9198 109.476 11.4521C109.207 11.9844 109.072 12.5981 109.072 13.2901C109.072 13.9821 109.207 14.6159 109.476 15.1481C109.746 15.6821 110.113 16.0963 110.577 16.394C111.041 16.6918 111.55 16.8398 112.103 16.8398Z" fill="#214D56"/>
<path d="M124.268 18.7278C123.299 18.7278 122.42 18.4966 121.632 18.0325C120.843 17.5684 120.223 16.9247 119.774 16.1013C119.323 15.2779 119.098 14.3397 119.098 13.2885C119.098 12.2372 119.323 11.319 119.774 10.4956C120.223 9.67221 120.843 9.02847 121.632 8.56438C122.42 8.10029 123.3 7.86908 124.268 7.86908C125.236 7.86908 126.096 8.10029 126.885 8.56438C127.673 9.02847 128.294 9.67221 128.743 10.4956C129.192 11.319 129.418 12.2505 129.418 13.2885C129.418 14.3264 129.194 15.2779 128.743 16.1013C128.292 16.9247 127.673 17.5684 126.885 18.0325C126.096 18.4966 125.223 18.7278 124.268 18.7278ZM124.268 16.8382C124.836 16.8382 125.358 16.6934 125.835 16.4024C126.313 16.1113 126.69 15.6971 126.966 15.1565C127.242 14.6159 127.382 13.9937 127.382 13.2885C127.382 12.5832 127.244 11.981 126.966 11.4404C126.689 10.8998 126.313 10.4856 125.835 10.1945C125.358 9.90342 124.836 9.75871 124.268 9.75871C123.701 9.75871 123.179 9.90342 122.701 10.1945C122.224 10.4856 121.846 10.8998 121.57 11.4404C121.292 11.981 121.154 12.5965 121.154 13.2885C121.154 13.9804 121.292 14.6175 121.57 15.1565C121.846 15.6971 122.224 16.1113 122.701 16.4024C123.179 16.6934 123.701 16.8382 124.268 16.8382Z" fill="#214D56"/>
</g>
<defs>
<clipPath id="clip0_5_78">
<rect width="129.418" height="22.6739" fill="white"/>
</clipPath>
</defs>
</svg>
