<svg width="131" height="139" viewBox="0 0 131 139" fill="none" xmlns="http://www.w3.org/2000/svg">
<path d="M-63.61 70.7061C-57.1996 63.3852 -49.4729 57.5898 -40.9312 53.7371C-32.9101 50.1202 -22.0721 47.0755 -10.82 46.5293C-5.77774 39.7966 0.606774 33.1545 8.29466 26.703C28.7192 9.56269 52.7499 0.418803 75.9591 0.952112C100.504 1.51775 124.347 12.8854 139.739 31.3671C146.263 39.2019 151.172 47.9999 154.371 57.4993C163.214 57.8096 171.729 59.4516 179.793 62.4123C193.367 67.3963 205.638 75.1148 215.279 84.7306L194.673 105.368C188.092 98.8035 179.233 93.2668 169.731 89.7792C166.215 88.4896 162.563 87.5911 158.776 87.0836C158.776 87.2258 158.77 87.3713 158.766 87.5135C158.291 106.225 152.369 125.165 141.634 142.283C130.421 160.17 114.25 173.412 96.099 179.573C86.8522 182.711 78.1099 183.584 70.118 182.168C59.0761 180.213 49.5188 173.642 44.551 164.592C40.2979 156.844 36.8728 143.731 44.7062 125.259C48.6391 115.989 55.2823 105.985 62.9346 97.8145C75.4642 84.43 92.1531 73.3371 111.193 65.7285C115.653 63.9476 120.097 62.4478 124.502 61.2358C122.62 57.2569 120.224 53.514 117.316 50.0233C107.238 37.9252 91.5257 30.4782 75.2864 30.1033C59.1732 29.7316 42.0412 36.4578 27.0535 49.0375C25.0677 50.702 23.1885 52.3892 21.4291 54.0829C29.1849 59.096 34.7576 66.3976 37.7105 75.5123C41.7404 87.9563 39.2338 102.084 31.1675 112.382C25.1259 120.091 16.2866 124.128 6.91363 123.443C-3.37787 122.689 -13.181 116.235 -18.6793 106.6C-20.1541 104.014 -21.3734 101.283 -22.3049 98.4771C-24.4589 91.9836 -25.164 85.3156 -24.4654 78.5765C-26.047 79.1066 -27.5509 79.6948 -28.9384 80.3186C-34.9833 83.0434 -40.3878 87.6428 -44.5665 93.6223L-68.4775 76.9216C-66.9574 74.7496 -65.3338 72.6777 -63.6164 70.7158L-63.61 70.7061ZM8.4499 94.0684C10.3581 91.3921 10.9662 87.5975 9.96029 84.4817C9.04499 81.6568 7.53457 79.6916 5.14768 78.2823C4.16122 82.1998 4.24531 85.8424 5.39025 89.288C5.71691 90.2738 6.1471 91.237 6.67105 92.1581C7.22734 93.131 7.92919 93.7419 8.4499 94.0684ZM129.431 90.1542C126.996 90.9138 124.525 91.7929 122.022 92.7917C106.927 98.8197 93.8609 107.443 84.2356 117.725C83.7278 118.268 83.2201 118.827 82.722 119.399C73.6725 129.732 66.5279 144.009 70.1244 150.564C70.7099 151.627 72.5469 152.988 75.2055 153.457C78.3072 154.006 82.1786 153.502 86.7196 151.963C98.5312 147.956 109.253 139.018 116.915 126.801C124.098 115.343 128.481 102.459 129.428 90.1574L129.431 90.1542Z" fill="#214D56"/>
</svg>
