<svg width="277" height="317" viewBox="0 0 277 317" fill="none" xmlns="http://www.w3.org/2000/svg">
<path d="M171.641 -99.3528C184.647 -87.9644 194.943 -74.2374 201.788 -59.0624C208.213 -44.8126 213.623 -25.558 214.593 -5.56794C226.554 3.38995 238.354 14.7325 249.816 28.3905C280.267 64.676 296.511 107.368 295.564 148.601C294.559 192.207 274.364 234.566 241.53 261.91C227.611 273.5 211.98 282.222 195.104 287.905C194.553 303.614 191.636 318.743 186.376 333.068C177.521 357.184 163.809 378.984 146.726 396.112L110.062 359.505C121.724 347.812 131.561 332.074 137.757 315.192C140.048 308.946 141.644 302.459 142.545 295.731C142.293 295.731 142.034 295.719 141.782 295.714C108.54 294.869 74.8908 284.348 44.4801 265.277C12.7027 245.356 -10.8231 216.627 -21.7677 184.381C-27.3434 167.953 -28.8938 152.422 -26.3787 138.224C-22.9047 118.607 -11.2308 101.628 4.84737 92.8023C18.6114 85.2464 41.9076 79.1614 74.7243 93.078C91.1929 100.065 108.965 111.867 123.481 125.462C147.26 147.722 166.967 177.371 180.484 211.197C183.648 219.121 186.313 227.015 188.466 234.841C195.535 231.497 202.184 227.24 208.386 222.074C229.879 204.17 243.109 176.256 243.775 147.406C244.435 118.78 232.486 88.3434 210.137 61.7168C207.18 58.1888 204.182 54.8505 201.173 51.7247C192.267 65.5034 179.296 75.4036 163.103 80.6496C140.995 87.809 115.896 83.356 97.6012 69.0256C83.9061 58.2923 76.734 42.5887 77.9514 25.937C79.2893 7.65347 90.7565 -9.76241 107.874 -19.5305C112.468 -22.1506 117.32 -24.3168 122.304 -25.9717C133.84 -29.7985 145.686 -31.0511 157.659 -29.8099C156.717 -32.6197 155.672 -35.2916 154.564 -37.7566C149.723 -48.4957 141.552 -58.0971 130.929 -65.5208L160.599 -108C164.458 -105.3 168.138 -102.415 171.624 -99.3643L171.641 -99.3528ZM130.137 28.6663C134.891 32.0564 141.632 33.1366 147.168 31.3496C152.187 29.7235 155.678 27.0402 158.182 22.7997C151.222 21.0472 144.751 21.1965 138.629 23.2306C136.878 23.8109 135.167 24.5752 133.53 25.506C131.802 26.4943 130.717 27.7412 130.137 28.6663ZM137.09 243.598C135.741 239.271 134.179 234.882 132.405 230.434C121.696 203.618 106.375 180.405 88.1094 163.305C87.1447 162.403 86.1513 161.5 85.1349 160.616C66.7771 144.539 41.4138 131.846 29.7686 138.235C27.8794 139.275 25.4619 142.539 24.6293 147.262C23.6531 152.772 24.5489 159.65 27.2822 167.718C34.4025 188.702 50.2797 207.749 71.9853 221.361C92.3414 234.123 115.23 241.909 137.085 243.592L137.09 243.598Z" fill="#E1F857"/>
</svg>
